<svg width="23" height="24" viewBox="0 0 23 24" fill="none" xmlns="http://www.w3.org/2000/svg">
<path d="M12.2466 1.15617C12.1404 1.04905 12.014 0.96403 11.8747 0.906009C11.7354 0.847988 11.5861 0.818115 11.4352 0.818115C11.2843 0.818115 11.1349 0.847988 10.9957 0.906009C10.8564 0.96403 10.73 1.04905 10.6238 1.15617L0.338055 11.4419C0.230937 11.5481 0.145915 11.6745 0.0878935 11.8138C0.0298723 11.9531 0 12.1024 0 12.2533C0 12.4042 0.0298723 12.5536 0.0878935 12.6928C0.145915 12.8321 0.230937 12.9585 0.338055 13.0647C0.444843 13.1707 0.57149 13.2545 0.710733 13.3113C0.849975 13.3682 0.999075 13.397 1.14948 13.3962H2.29234V21.3962C2.29234 22.0024 2.53315 22.5838 2.96181 23.0124C3.39046 23.4411 3.97184 23.6819 4.57805 23.6819H18.2923C18.8985 23.6819 19.4799 23.4411 19.9086 23.0124C20.3372 22.5838 20.578 22.0024 20.578 21.3962V13.3962H21.7209C22.024 13.3962 22.3147 13.2758 22.529 13.0614C22.7433 12.8471 22.8637 12.5564 22.8637 12.2533C22.8646 12.1029 22.8358 11.9538 22.7789 11.8146C22.722 11.6753 22.6382 11.5487 22.5323 11.4419L12.2466 1.15617ZM4.57805 21.3962V10.4362L11.4352 3.57903L18.2923 10.4362V21.3962H4.57805Z" fill="#230EA5"/>
</svg>
