<svg width="23" height="24" viewBox="0 0 23 24" fill="none" xmlns="http://www.w3.org/2000/svg">
<path d="M12.2466 0.838055C12.1404 0.730937 12.014 0.645915 11.8747 0.587894C11.7354 0.529872 11.5861 0.5 11.4352 0.5C11.2843 0.5 11.1349 0.529872 10.9957 0.587894C10.8564 0.645915 10.73 0.730937 10.6238 0.838055L0.338055 11.1238C0.230937 11.23 0.145915 11.3564 0.0878935 11.4957C0.0298723 11.635 0 11.7843 0 11.9352C0 12.0861 0.0298723 12.2354 0.0878935 12.3747C0.145915 12.514 0.230937 12.6404 0.338055 12.7466C0.444843 12.8525 0.57149 12.9363 0.710733 12.9932C0.849975 13.0501 0.999075 13.0789 1.14948 13.0781H2.29234V21.0781C2.29234 21.6843 2.53315 22.2656 2.96181 22.6943C3.39046 23.123 3.97184 23.3638 4.57805 23.3638H18.2923C18.8985 23.3638 19.4799 23.123 19.9086 22.6943C20.3372 22.2656 20.578 21.6843 20.578 21.0781V13.0781H21.7209C22.024 13.0781 22.3147 12.9576 22.529 12.7433C22.7433 12.529 22.8637 12.2383 22.8637 11.9352C22.8646 11.7848 22.8358 11.6357 22.7789 11.4964C22.722 11.3572 22.6382 11.2306 22.5323 11.1238L12.2466 0.838055ZM4.57805 21.0781V10.1181L11.4352 3.26091L18.2923 10.1181V21.0781H4.57805Z" fill="#847CB1"/>
</svg>
