<svg width="20" height="20" viewBox="0 0 20 20" fill="none" xmlns="http://www.w3.org/2000/svg">
<path d="M9.5575 1.4325C9.61556 1.3743 9.68453 1.32812 9.76046 1.29661C9.83639 1.2651 9.91779 1.24889 10 1.24889C10.0822 1.24889 10.1636 1.2651 10.2395 1.29661C10.3155 1.32812 10.3844 1.3743 10.4425 1.4325C10.7688 1.76 12.2025 3.245 13.5588 5.18625C14.8962 7.1 16.25 9.58125 16.25 11.875C16.25 14.1 15.5288 15.8313 14.355 17.0063C13.1863 18.1775 11.6137 18.75 10 18.75C8.38625 18.75 6.81375 18.1775 5.645 17.0063C4.47125 15.8313 3.75 14.1013 3.75 11.875C3.75 9.58125 5.10375 7.1 6.44125 5.1875C7.37774 3.85439 8.41985 2.59868 9.5575 1.4325Z" fill="#5347DC"/>
</svg>
