<svg width="32" height="32" viewBox="0 0 32 32" fill="none" xmlns="http://www.w3.org/2000/svg">
<g filter="url(#filter0_i_33_282)">
<path d="M23.51 5.632C24.01 7.672 24.07 9.892 23.53 12.192C22.27 17.522 17.89 21.702 12.51 22.672C9.59999 23.202 6.82999 22.802 4.41999 21.752C3.85999 21.502 3.32999 22.142 3.61999 22.682C6.26999 27.562 11.73 30.682 17.84 29.872C24.07 29.042 29.06 23.962 29.81 17.722C30.41 12.542 28.21 7.862 24.53 4.972C24.06 4.612 23.37 5.052 23.51 5.632Z" fill="url(#paint0_linear_33_282)"/>
<path d="M23.51 5.632C24.01 7.672 24.07 9.892 23.53 12.192C22.27 17.522 17.89 21.702 12.51 22.672C9.59999 23.202 6.82999 22.802 4.41999 21.752C3.85999 21.502 3.32999 22.142 3.61999 22.682C6.26999 27.562 11.73 30.682 17.84 29.872C24.07 29.042 29.06 23.962 29.81 17.722C30.41 12.542 28.21 7.862 24.53 4.972C24.06 4.612 23.37 5.052 23.51 5.632Z" fill="url(#paint1_radial_33_282)"/>
<path d="M23.51 5.632C24.01 7.672 24.07 9.892 23.53 12.192C22.27 17.522 17.89 21.702 12.51 22.672C9.59999 23.202 6.82999 22.802 4.41999 21.752C3.85999 21.502 3.32999 22.142 3.61999 22.682C6.26999 27.562 11.73 30.682 17.84 29.872C24.07 29.042 29.06 23.962 29.81 17.722C30.41 12.542 28.21 7.862 24.53 4.972C24.06 4.612 23.37 5.052 23.51 5.632Z" fill="url(#paint2_radial_33_282)"/>
</g>
<path d="M23.51 5.632C24.01 7.672 24.07 9.892 23.53 12.192C22.27 17.522 17.89 21.702 12.51 22.672C9.59999 23.202 6.82999 22.802 4.41999 21.752C3.85999 21.502 3.32999 22.142 3.61999 22.682C6.26999 27.562 11.73 30.682 17.84 29.872C24.07 29.042 29.06 23.962 29.81 17.722C30.41 12.542 28.21 7.862 24.53 4.972C24.06 4.612 23.37 5.052 23.51 5.632Z" fill="url(#paint3_radial_33_282)"/>
<g filter="url(#filter1_f_33_282)">
<path d="M13.48 27.012C13.8964 27.012 14.2957 26.8466 14.5901 26.5522C14.8846 26.2577 15.05 25.8584 15.05 25.442C15.05 25.0256 14.8846 24.6263 14.5901 24.3319C14.2957 24.0374 13.8964 23.872 13.48 23.872C13.0636 23.872 12.6642 24.0374 12.3698 24.3319C12.0754 24.6263 11.91 25.0256 11.91 25.442C11.91 25.8584 12.0754 26.2577 12.3698 26.5522C12.6642 26.8466 13.0636 27.012 13.48 27.012V27.012Z" stroke="url(#paint4_linear_33_282)" stroke-width="0.3"/>
</g>
<g filter="url(#filter2_ii_33_282)">
<path d="M13.48 27.012C13.8964 27.012 14.2957 26.8466 14.5901 26.5522C14.8846 26.2577 15.05 25.8584 15.05 25.442C15.05 25.0256 14.8846 24.6263 14.5901 24.3319C14.2957 24.0374 13.8964 23.872 13.48 23.872C13.0636 23.872 12.6642 24.0374 12.3698 24.3319C12.0754 24.6263 11.91 25.0256 11.91 25.442C11.91 25.8584 12.0754 26.2577 12.3698 26.5522C12.6642 26.8466 13.0636 27.012 13.48 27.012Z" fill="url(#paint5_radial_33_282)"/>
</g>
<g filter="url(#filter3_f_33_282)">
<path d="M26.4 14.132C26.8164 14.132 27.2157 13.9666 27.5102 13.6722C27.8046 13.3777 27.97 12.9784 27.97 12.562C27.97 12.1456 27.8046 11.7463 27.5102 11.4518C27.2157 11.1574 26.8164 10.992 26.4 10.992C25.9836 10.992 25.5843 11.1574 25.2899 11.4518C24.9954 11.7463 24.83 12.1456 24.83 12.562C24.83 12.9784 24.9954 13.3777 25.2899 13.6722C25.5843 13.9666 25.9836 14.132 26.4 14.132V14.132Z" stroke="url(#paint6_linear_33_282)" stroke-width="0.2"/>
</g>
<g filter="url(#filter4_ii_33_282)">
<path d="M26.4 14.132C26.8164 14.132 27.2157 13.9666 27.5102 13.6722C27.8046 13.3777 27.97 12.9784 27.97 12.562C27.97 12.1456 27.8046 11.7463 27.5102 11.4518C27.2157 11.1574 26.8164 10.992 26.4 10.992C25.9836 10.992 25.5843 11.1574 25.2899 11.4518C24.9954 11.7463 24.83 12.1456 24.83 12.562C24.83 12.9784 24.9954 13.3777 25.2899 13.6722C25.5843 13.9666 25.9836 14.132 26.4 14.132Z" fill="url(#paint7_radial_33_282)"/>
</g>
<g filter="url(#filter5_f_33_282)">
<path d="M26.9 18.972C27.1625 18.972 27.4143 18.8677 27.6 18.682C27.7857 18.4964 27.89 18.2446 27.89 17.982C27.89 17.7194 27.7857 17.4676 27.6 17.282C27.4143 17.0963 27.1625 16.992 26.9 16.992C26.6374 16.992 26.3856 17.0963 26.1999 17.282C26.0143 17.4676 25.91 17.7194 25.91 17.982C25.91 18.2446 26.0143 18.4964 26.1999 18.682C26.3856 18.8677 26.6374 18.972 26.9 18.972Z" stroke="url(#paint8_linear_33_282)" stroke-width="0.2"/>
</g>
<g filter="url(#filter6_ii_33_282)">
<path d="M26.9 18.972C27.1625 18.972 27.4143 18.8677 27.6 18.682C27.7857 18.4964 27.89 18.2446 27.89 17.982C27.89 17.7194 27.7857 17.4676 27.6 17.282C27.4143 17.0963 27.1625 16.992 26.9 16.992C26.6374 16.992 26.3856 17.0963 26.1999 17.282C26.0143 17.4676 25.91 17.7194 25.91 17.982C25.91 18.2446 26.0143 18.4964 26.1999 18.682C26.3856 18.8677 26.6374 18.972 26.9 18.972Z" fill="url(#paint9_radial_33_282)"/>
</g>
<g filter="url(#filter7_f_33_282)">
<path d="M21.9 24.982C22.2939 24.982 22.684 24.9044 23.048 24.7536C23.412 24.6029 23.7427 24.3819 24.0213 24.1033C24.2999 23.8248 24.5208 23.494 24.6716 23.1301C24.8224 22.7661 24.9 22.376 24.9 21.982C24.9 21.588 24.8224 21.1979 24.6716 20.834C24.5208 20.47 24.2999 20.1393 24.0213 19.8607C23.7427 19.5821 23.412 19.3611 23.048 19.2104C22.684 19.0596 22.2939 18.982 21.9 18.982C21.1043 18.982 20.3413 19.2981 19.7786 19.8607C19.216 20.4233 18.9 21.1864 18.9 21.982C18.9 22.7777 19.216 23.5407 19.7786 24.1033C20.3413 24.6659 21.1043 24.982 21.9 24.982V24.982Z" stroke="url(#paint10_linear_33_282)" stroke-width="0.3"/>
</g>
<g filter="url(#filter8_ii_33_282)">
<path d="M21.9 24.982C22.2939 24.982 22.684 24.9044 23.048 24.7536C23.412 24.6029 23.7427 24.3819 24.0213 24.1033C24.2999 23.8248 24.5208 23.494 24.6716 23.1301C24.8224 22.7661 24.9 22.376 24.9 21.982C24.9 21.588 24.8224 21.1979 24.6716 20.834C24.5208 20.47 24.2999 20.1393 24.0213 19.8607C23.7427 19.5821 23.412 19.3611 23.048 19.2104C22.684 19.0596 22.2939 18.982 21.9 18.982C21.1043 18.982 20.3413 19.2981 19.7786 19.8607C19.216 20.4233 18.9 21.1864 18.9 21.982C18.9 22.7777 19.216 23.5407 19.7786 24.1033C20.3413 24.6659 21.1043 24.982 21.9 24.982Z" fill="url(#paint11_radial_33_282)"/>
</g>
<defs>
<filter id="filter0_i_33_282" x="3.53802" y="4.34169" width="26.8701" height="25.658" filterUnits="userSpaceOnUse" color-interpolation-filters="sRGB">
<feFlood flood-opacity="0" result="BackgroundImageFix"/>
<feBlend mode="normal" in="SourceGraphic" in2="BackgroundImageFix" result="shape"/>
<feColorMatrix in="SourceAlpha" type="matrix" values="0 0 0 0 0 0 0 0 0 0 0 0 0 0 0 0 0 0 127 0" result="hardAlpha"/>
<feOffset dx="0.5" dy="-0.5"/>
<feGaussianBlur stdDeviation="0.5"/>
<feComposite in2="hardAlpha" operator="arithmetic" k2="-1" k3="1"/>
<feColorMatrix type="matrix" values="0 0 0 0 0.721569 0 0 0 0 0.372549 0 0 0 0 0.356863 0 0 0 1 0"/>
<feBlend mode="normal" in2="shape" result="effect1_innerShadow_33_282"/>
</filter>
<filter id="filter1_f_33_282" x="11.4599" y="23.422" width="4.04" height="4.03999" filterUnits="userSpaceOnUse" color-interpolation-filters="sRGB">
<feFlood flood-opacity="0" result="BackgroundImageFix"/>
<feBlend mode="normal" in="SourceGraphic" in2="BackgroundImageFix" result="shape"/>
<feGaussianBlur stdDeviation="0.15" result="effect1_foregroundBlur_33_282"/>
</filter>
<filter id="filter2_ii_33_282" x="11.66" y="23.472" width="3.69001" height="3.79" filterUnits="userSpaceOnUse" color-interpolation-filters="sRGB">
<feFlood flood-opacity="0" result="BackgroundImageFix"/>
<feBlend mode="normal" in="SourceGraphic" in2="BackgroundImageFix" result="shape"/>
<feColorMatrix in="SourceAlpha" type="matrix" values="0 0 0 0 0 0 0 0 0 0 0 0 0 0 0 0 0 0 127 0" result="hardAlpha"/>
<feOffset dx="-0.25" dy="0.25"/>
<feGaussianBlur stdDeviation="0.375"/>
<feComposite in2="hardAlpha" operator="arithmetic" k2="-1" k3="1"/>
<feColorMatrix type="matrix" values="0 0 0 0 0.780392 0 0 0 0 0.462745 0 0 0 0 0.254902 0 0 0 1 0"/>
<feBlend mode="normal" in2="shape" result="effect1_innerShadow_33_282"/>
<feColorMatrix in="SourceAlpha" type="matrix" values="0 0 0 0 0 0 0 0 0 0 0 0 0 0 0 0 0 0 127 0" result="hardAlpha"/>
<feOffset dx="0.3" dy="-0.4"/>
<feGaussianBlur stdDeviation="0.5"/>
<feComposite in2="hardAlpha" operator="arithmetic" k2="-1" k3="1"/>
<feColorMatrix type="matrix" values="0 0 0 0 1 0 0 0 0 0.839216 0 0 0 0 0.513726 0 0 0 1 0"/>
<feBlend mode="normal" in2="effect1_innerShadow_33_282" result="effect2_innerShadow_33_282"/>
</filter>
<filter id="filter3_f_33_282" x="24.53" y="10.692" width="3.73997" height="3.74001" filterUnits="userSpaceOnUse" color-interpolation-filters="sRGB">
<feFlood flood-opacity="0" result="BackgroundImageFix"/>
<feBlend mode="normal" in="SourceGraphic" in2="BackgroundImageFix" result="shape"/>
<feGaussianBlur stdDeviation="0.1" result="effect1_foregroundBlur_33_282"/>
</filter>
<filter id="filter4_ii_33_282" x="24.58" y="10.692" width="3.69001" height="3.69" filterUnits="userSpaceOnUse" color-interpolation-filters="sRGB">
<feFlood flood-opacity="0" result="BackgroundImageFix"/>
<feBlend mode="normal" in="SourceGraphic" in2="BackgroundImageFix" result="shape"/>
<feColorMatrix in="SourceAlpha" type="matrix" values="0 0 0 0 0 0 0 0 0 0 0 0 0 0 0 0 0 0 127 0" result="hardAlpha"/>
<feOffset dx="-0.25" dy="0.25"/>
<feGaussianBlur stdDeviation="0.2"/>
<feComposite in2="hardAlpha" operator="arithmetic" k2="-1" k3="1"/>
<feColorMatrix type="matrix" values="0 0 0 0 0.847059 0 0 0 0 0.552941 0 0 0 0 0.235294 0 0 0 1 0"/>
<feBlend mode="normal" in2="shape" result="effect1_innerShadow_33_282"/>
<feColorMatrix in="SourceAlpha" type="matrix" values="0 0 0 0 0 0 0 0 0 0 0 0 0 0 0 0 0 0 127 0" result="hardAlpha"/>
<feOffset dx="0.3" dy="-0.3"/>
<feGaussianBlur stdDeviation="0.15"/>
<feComposite in2="hardAlpha" operator="arithmetic" k2="-1" k3="1"/>
<feColorMatrix type="matrix" values="0 0 0 0 1 0 0 0 0 0.921569 0 0 0 0 0.682353 0 0 0 1 0"/>
<feBlend mode="normal" in2="effect1_innerShadow_33_282" result="effect2_innerShadow_33_282"/>
</filter>
<filter id="filter5_f_33_282" x="25.61" y="16.692" width="2.57999" height="2.58001" filterUnits="userSpaceOnUse" color-interpolation-filters="sRGB">
<feFlood flood-opacity="0" result="BackgroundImageFix"/>
<feBlend mode="normal" in="SourceGraphic" in2="BackgroundImageFix" result="shape"/>
<feGaussianBlur stdDeviation="0.1" result="effect1_foregroundBlur_33_282"/>
</filter>
<filter id="filter6_ii_33_282" x="25.76" y="16.792" width="2.32998" height="2.33" filterUnits="userSpaceOnUse" color-interpolation-filters="sRGB">
<feFlood flood-opacity="0" result="BackgroundImageFix"/>
<feBlend mode="normal" in="SourceGraphic" in2="BackgroundImageFix" result="shape"/>
<feColorMatrix in="SourceAlpha" type="matrix" values="0 0 0 0 0 0 0 0 0 0 0 0 0 0 0 0 0 0 127 0" result="hardAlpha"/>
<feOffset dx="-0.15" dy="0.15"/>
<feGaussianBlur stdDeviation="0.1"/>
<feComposite in2="hardAlpha" operator="arithmetic" k2="-1" k3="1"/>
<feColorMatrix type="matrix" values="0 0 0 0 0.847059 0 0 0 0 0.552941 0 0 0 0 0.235294 0 0 0 1 0"/>
<feBlend mode="normal" in2="shape" result="effect1_innerShadow_33_282"/>
<feColorMatrix in="SourceAlpha" type="matrix" values="0 0 0 0 0 0 0 0 0 0 0 0 0 0 0 0 0 0 127 0" result="hardAlpha"/>
<feOffset dx="0.2" dy="-0.2"/>
<feGaussianBlur stdDeviation="0.1"/>
<feComposite in2="hardAlpha" operator="arithmetic" k2="-1" k3="1"/>
<feColorMatrix type="matrix" values="0 0 0 0 1 0 0 0 0 0.921569 0 0 0 0 0.682353 0 0 0 1 0"/>
<feBlend mode="normal" in2="effect1_innerShadow_33_282" result="effect2_innerShadow_33_282"/>
</filter>
<filter id="filter7_f_33_282" x="18.4499" y="18.532" width="6.90005" height="6.89999" filterUnits="userSpaceOnUse" color-interpolation-filters="sRGB">
<feFlood flood-opacity="0" result="BackgroundImageFix"/>
<feBlend mode="normal" in="SourceGraphic" in2="BackgroundImageFix" result="shape"/>
<feGaussianBlur stdDeviation="0.15" result="effect1_foregroundBlur_33_282"/>
</filter>
<filter id="filter8_ii_33_282" x="18.65" y="18.582" width="6.55" height="6.65" filterUnits="userSpaceOnUse" color-interpolation-filters="sRGB">
<feFlood flood-opacity="0" result="BackgroundImageFix"/>
<feBlend mode="normal" in="SourceGraphic" in2="BackgroundImageFix" result="shape"/>
<feColorMatrix in="SourceAlpha" type="matrix" values="0 0 0 0 0 0 0 0 0 0 0 0 0 0 0 0 0 0 127 0" result="hardAlpha"/>
<feOffset dx="-0.25" dy="0.25"/>
<feGaussianBlur stdDeviation="0.375"/>
<feComposite in2="hardAlpha" operator="arithmetic" k2="-1" k3="1"/>
<feColorMatrix type="matrix" values="0 0 0 0 0.8 0 0 0 0 0.537255 0 0 0 0 0.270588 0 0 0 1 0"/>
<feBlend mode="normal" in2="shape" result="effect1_innerShadow_33_282"/>
<feColorMatrix in="SourceAlpha" type="matrix" values="0 0 0 0 0 0 0 0 0 0 0 0 0 0 0 0 0 0 127 0" result="hardAlpha"/>
<feOffset dx="0.3" dy="-0.4"/>
<feGaussianBlur stdDeviation="0.5"/>
<feComposite in2="hardAlpha" operator="arithmetic" k2="-1" k3="1"/>
<feColorMatrix type="matrix" values="0 0 0 0 1 0 0 0 0 0.882353 0 0 0 0 0.611765 0 0 0 1 0"/>
<feBlend mode="normal" in2="effect1_innerShadow_33_282" result="effect2_innerShadow_33_282"/>
</filter>
<linearGradient id="paint0_linear_33_282" x1="28.688" y1="11.188" x2="10.75" y2="29.313" gradientUnits="userSpaceOnUse">
<stop stop-color="#FFD874"/>
<stop offset="1" stop-color="#FFBC4C"/>
</linearGradient>
<radialGradient id="paint1_radial_33_282" cx="0" cy="0" r="1" gradientUnits="userSpaceOnUse" gradientTransform="translate(14.6877 16.6253) rotate(-23.408) scale(15.7323 16.4902)">
<stop offset="0.769" stop-color="#FFECAE" stop-opacity="0"/>
<stop offset="0.984" stop-color="#FFECAE"/>
</radialGradient>
<radialGradient id="paint2_radial_33_282" cx="0" cy="0" r="1" gradientUnits="userSpaceOnUse" gradientTransform="translate(8.70499 31.214) rotate(-39.846) scale(14.0127 14.6878)">
<stop stop-color="#FF984F"/>
<stop offset="1" stop-color="#FF984F" stop-opacity="0"/>
</radialGradient>
<radialGradient id="paint3_radial_33_282" cx="0" cy="0" r="1" gradientUnits="userSpaceOnUse" gradientTransform="translate(22.1725 11.5155) rotate(13.627) scale(2.62816 6.65588)">
<stop offset="0.23" stop-color="#BA935B"/>
<stop offset="0.979" stop-color="#BA935B" stop-opacity="0"/>
</radialGradient>
<linearGradient id="paint4_linear_33_282" x1="14.857" y1="24.65" x2="13.074" y2="25.582" gradientUnits="userSpaceOnUse">
<stop stop-color="#D0883B"/>
<stop offset="1" stop-color="#FFCA6D"/>
</linearGradient>
<radialGradient id="paint5_radial_33_282" cx="0" cy="0" r="1" gradientUnits="userSpaceOnUse" gradientTransform="translate(12.8125 25.7296) rotate(-22.978) scale(2.4298)">
<stop stop-color="#FFBA6A"/>
<stop offset="1" stop-color="#EB9E58"/>
</radialGradient>
<linearGradient id="paint6_linear_33_282" x1="27.748" y1="11.227" x2="25.295" y2="13.854" gradientUnits="userSpaceOnUse">
<stop stop-color="#E7AC47"/>
<stop offset="1" stop-color="#FFE9A7"/>
</linearGradient>
<radialGradient id="paint7_radial_33_282" cx="0" cy="0" r="1" gradientUnits="userSpaceOnUse" gradientTransform="translate(25.7319 12.8494) rotate(-15.521) scale(2.32168)">
<stop stop-color="#FFD778"/>
<stop offset="1" stop-color="#FFC767"/>
</radialGradient>
<linearGradient id="paint8_linear_33_282" x1="27.75" y1="17.141" x2="26.203" y2="18.797" gradientUnits="userSpaceOnUse">
<stop stop-color="#E7AC47"/>
<stop offset="1" stop-color="#FFE9A7"/>
</linearGradient>
<radialGradient id="paint9_radial_33_282" cx="0" cy="0" r="1" gradientUnits="userSpaceOnUse" gradientTransform="translate(26.4781 18.1629) rotate(-15.521) scale(1.46399)">
<stop stop-color="#FFDE8F"/>
<stop offset="1" stop-color="#FFC25B"/>
</radialGradient>
<linearGradient id="paint10_linear_33_282" x1="24.531" y1="20.469" x2="21.125" y2="22.25" gradientUnits="userSpaceOnUse">
<stop stop-color="#E2A842"/>
<stop offset="1" stop-color="#FFD778"/>
</linearGradient>
<radialGradient id="paint11_radial_33_282" cx="0" cy="0" r="1" gradientUnits="userSpaceOnUse" gradientTransform="translate(20.6251 22.5315) rotate(-22.978) scale(4.64293)">
<stop stop-color="#FFC75F"/>
<stop offset="1" stop-color="#FABC5A"/>
</radialGradient>
</defs>
</svg>
