<svg width="63" height="63" viewBox="0 0 63 63" fill="none" xmlns="http://www.w3.org/2000/svg">
<path d="M15.9469 5.23293C17.6085 3.36065 19.8725 3.65793 21.3196 5.23293L22.2016 6.25668C22.5067 6.58743 22.9497 6.76068 23.4005 6.72131L24.9696 6.25471C27.1097 5.79599 29.0528 7.39265 29.0528 9.8713V10.8045C29.0981 11.3164 29.545 11.6609 30.0037 11.8853L31.4212 12.476C33.4727 13.48 33.9845 15.8563 32.4903 17.8506L32.067 18.4117C31.685 18.9256 31.7638 19.6009 32.1418 20.1186L32.567 20.7112C34.1125 22.6131 33.2404 25.2216 31.059 26.1332L29.8384 26.6451C29.3777 26.836 29.1985 27.1648 29.1119 27.657L29.0272 29.2517C28.9753 29.6972 28.8351 30.1279 28.615 30.5187C28.395 30.9095 28.0993 31.2526 27.7453 31.528C27.3913 31.8034 26.986 32.0056 26.5531 32.1228C26.1201 32.24 25.6682 32.2699 25.2236 32.2107L23.3651 31.7146C22.9182 31.6516 22.363 31.7992 22.0657 32.2658L21.3964 33.1833C19.7308 35.0595 17.4864 34.7465 16.3524 33.6499L15.116 32.1516C14.7912 31.8366 14.3837 31.5689 13.8954 31.754L12.0251 32.2658C10.4777 32.4844 8.65854 31.2972 8.36914 29.7655L8.15257 27.5467C8.10952 27.3188 8.01277 27.1043 7.87035 26.9211C7.72793 26.738 7.54392 26.5914 7.33357 26.4935L6.02042 26.0426C4.04773 25.1232 3.38623 22.8966 4.52023 21.0361L5.26048 20.0123C5.40542 19.7737 5.47892 19.4985 5.47229 19.2194C5.46566 18.9402 5.37918 18.6688 5.22307 18.4373L4.67182 17.6557C3.10864 15.4311 4.18948 12.9465 6.50276 12.2003L7.01464 12.035C7.5777 11.8538 8.12304 11.3853 8.16832 10.7946L8.28251 9.36337C8.46757 7.04024 10.5899 5.70543 12.8205 6.38268L13.543 6.60318C14.24 6.87487 14.7833 6.64256 15.1653 6.22912L15.9449 5.23293H15.9469Z" fill="url(#paint0_linear_131_334)"/>
<path d="M15.9469 5.23293C17.6085 3.36065 19.8725 3.65793 21.3196 5.23293L22.2016 6.25668C22.5067 6.58743 22.9497 6.76068 23.4005 6.72131L24.9696 6.25471C27.1097 5.79599 29.0528 7.39265 29.0528 9.8713V10.8045C29.0981 11.3164 29.545 11.6609 30.0037 11.8853L31.4212 12.476C33.4727 13.48 33.9845 15.8563 32.4903 17.8506L32.067 18.4117C31.685 18.9256 31.7638 19.6009 32.1418 20.1186L32.567 20.7112C34.1125 22.6131 33.2404 25.2216 31.059 26.1332L29.8384 26.6451C29.3777 26.836 29.1985 27.1648 29.1119 27.657L29.0272 29.2517C28.9753 29.6972 28.8351 30.1279 28.615 30.5187C28.395 30.9095 28.0993 31.2526 27.7453 31.528C27.3913 31.8034 26.986 32.0056 26.5531 32.1228C26.1201 32.24 25.6682 32.2699 25.2236 32.2107L23.3651 31.7146C22.9182 31.6516 22.363 31.7992 22.0657 32.2658L21.3964 33.1833C19.7308 35.0595 17.4864 34.7465 16.3524 33.6499L15.116 32.1516C14.7912 31.8366 14.3837 31.5689 13.8954 31.754L12.0251 32.2658C10.4777 32.4844 8.65854 31.2972 8.36914 29.7655L8.15257 27.5467C8.10952 27.3188 8.01277 27.1043 7.87035 26.9211C7.72793 26.738 7.54392 26.5914 7.33357 26.4935L6.02042 26.0426C4.04773 25.1232 3.38623 22.8966 4.52023 21.0361L5.26048 20.0123C5.40542 19.7737 5.47892 19.4985 5.47229 19.2194C5.46566 18.9402 5.37918 18.6688 5.22307 18.4373L4.67182 17.6557C3.10864 15.4311 4.18948 12.9465 6.50276 12.2003L7.01464 12.035C7.5777 11.8538 8.12304 11.3853 8.16832 10.7946L8.28251 9.36337C8.46757 7.04024 10.5899 5.70543 12.8205 6.38268L13.543 6.60318C14.24 6.87487 14.7833 6.64256 15.1653 6.22912L15.9449 5.23293H15.9469Z" fill="url(#paint1_radial_131_334)"/>
<path d="M15.9469 5.23293C17.6085 3.36065 19.8725 3.65793 21.3196 5.23293L22.2016 6.25668C22.5067 6.58743 22.9497 6.76068 23.4005 6.72131L24.9696 6.25471C27.1097 5.79599 29.0528 7.39265 29.0528 9.8713V10.8045C29.0981 11.3164 29.545 11.6609 30.0037 11.8853L31.4212 12.476C33.4727 13.48 33.9845 15.8563 32.4903 17.8506L32.067 18.4117C31.685 18.9256 31.7638 19.6009 32.1418 20.1186L32.567 20.7112C34.1125 22.6131 33.2404 25.2216 31.059 26.1332L29.8384 26.6451C29.3777 26.836 29.1985 27.1648 29.1119 27.657L29.0272 29.2517C28.9753 29.6972 28.8351 30.1279 28.615 30.5187C28.395 30.9095 28.0993 31.2526 27.7453 31.528C27.3913 31.8034 26.986 32.0056 26.5531 32.1228C26.1201 32.24 25.6682 32.2699 25.2236 32.2107L23.3651 31.7146C22.9182 31.6516 22.363 31.7992 22.0657 32.2658L21.3964 33.1833C19.7308 35.0595 17.4864 34.7465 16.3524 33.6499L15.116 32.1516C14.7912 31.8366 14.3837 31.5689 13.8954 31.754L12.0251 32.2658C10.4777 32.4844 8.65854 31.2972 8.36914 29.7655L8.15257 27.5467C8.10952 27.3188 8.01277 27.1043 7.87035 26.9211C7.72793 26.738 7.54392 26.5914 7.33357 26.4935L6.02042 26.0426C4.04773 25.1232 3.38623 22.8966 4.52023 21.0361L5.26048 20.0123C5.40542 19.7737 5.47892 19.4985 5.47229 19.2194C5.46566 18.9402 5.37918 18.6688 5.22307 18.4373L4.67182 17.6557C3.10864 15.4311 4.18948 12.9465 6.50276 12.2003L7.01464 12.035C7.5777 11.8538 8.12304 11.3853 8.16832 10.7946L8.28251 9.36337C8.46757 7.04024 10.5899 5.70543 12.8205 6.38268L13.543 6.60318C14.24 6.87487 14.7833 6.64256 15.1653 6.22912L15.9449 5.23293H15.9469Z" fill="url(#paint2_radial_131_334)"/>
<path d="M15.9469 5.23293C17.6085 3.36065 19.8725 3.65793 21.3196 5.23293L22.2016 6.25668C22.5067 6.58743 22.9497 6.76068 23.4005 6.72131L24.9696 6.25471C27.1097 5.79599 29.0528 7.39265 29.0528 9.8713V10.8045C29.0981 11.3164 29.545 11.6609 30.0037 11.8853L31.4212 12.476C33.4727 13.48 33.9845 15.8563 32.4903 17.8506L32.067 18.4117C31.685 18.9256 31.7638 19.6009 32.1418 20.1186L32.567 20.7112C34.1125 22.6131 33.2404 25.2216 31.059 26.1332L29.8384 26.6451C29.3777 26.836 29.1985 27.1648 29.1119 27.657L29.0272 29.2517C28.9753 29.6972 28.8351 30.1279 28.615 30.5187C28.395 30.9095 28.0993 31.2526 27.7453 31.528C27.3913 31.8034 26.986 32.0056 26.5531 32.1228C26.1201 32.24 25.6682 32.2699 25.2236 32.2107L23.3651 31.7146C22.9182 31.6516 22.363 31.7992 22.0657 32.2658L21.3964 33.1833C19.7308 35.0595 17.4864 34.7465 16.3524 33.6499L15.116 32.1516C14.7912 31.8366 14.3837 31.5689 13.8954 31.754L12.0251 32.2658C10.4777 32.4844 8.65854 31.2972 8.36914 29.7655L8.15257 27.5467C8.10952 27.3188 8.01277 27.1043 7.87035 26.9211C7.72793 26.738 7.54392 26.5914 7.33357 26.4935L6.02042 26.0426C4.04773 25.1232 3.38623 22.8966 4.52023 21.0361L5.26048 20.0123C5.40542 19.7737 5.47892 19.4985 5.47229 19.2194C5.46566 18.9402 5.37918 18.6688 5.22307 18.4373L4.67182 17.6557C3.10864 15.4311 4.18948 12.9465 6.50276 12.2003L7.01464 12.035C7.5777 11.8538 8.12304 11.3853 8.16832 10.7946L8.28251 9.36337C8.46757 7.04024 10.5899 5.70543 12.8205 6.38268L13.543 6.60318C14.24 6.87487 14.7833 6.64256 15.1653 6.22912L15.9449 5.23293H15.9469Z" fill="url(#paint3_radial_131_334)"/>
<path d="M15.9469 5.23293C17.6085 3.36065 19.8725 3.65793 21.3196 5.23293L22.2016 6.25668C22.5067 6.58743 22.9497 6.76068 23.4005 6.72131L24.9696 6.25471C27.1097 5.79599 29.0528 7.39265 29.0528 9.8713V10.8045C29.0981 11.3164 29.545 11.6609 30.0037 11.8853L31.4212 12.476C33.4727 13.48 33.9845 15.8563 32.4903 17.8506L32.067 18.4117C31.685 18.9256 31.7638 19.6009 32.1418 20.1186L32.567 20.7112C34.1125 22.6131 33.2404 25.2216 31.059 26.1332L29.8384 26.6451C29.3777 26.836 29.1985 27.1648 29.1119 27.657L29.0272 29.2517C28.9753 29.6972 28.8351 30.1279 28.615 30.5187C28.395 30.9095 28.0993 31.2526 27.7453 31.528C27.3913 31.8034 26.986 32.0056 26.5531 32.1228C26.1201 32.24 25.6682 32.2699 25.2236 32.2107L23.3651 31.7146C22.9182 31.6516 22.363 31.7992 22.0657 32.2658L21.3964 33.1833C19.7308 35.0595 17.4864 34.7465 16.3524 33.6499L15.116 32.1516C14.7912 31.8366 14.3837 31.5689 13.8954 31.754L12.0251 32.2658C10.4777 32.4844 8.65854 31.2972 8.36914 29.7655L8.15257 27.5467C8.10952 27.3188 8.01277 27.1043 7.87035 26.9211C7.72793 26.738 7.54392 26.5914 7.33357 26.4935L6.02042 26.0426C4.04773 25.1232 3.38623 22.8966 4.52023 21.0361L5.26048 20.0123C5.40542 19.7737 5.47892 19.4985 5.47229 19.2194C5.46566 18.9402 5.37918 18.6688 5.22307 18.4373L4.67182 17.6557C3.10864 15.4311 4.18948 12.9465 6.50276 12.2003L7.01464 12.035C7.5777 11.8538 8.12304 11.3853 8.16832 10.7946L8.28251 9.36337C8.46757 7.04024 10.5899 5.70543 12.8205 6.38268L13.543 6.60318C14.24 6.87487 14.7833 6.64256 15.1653 6.22912L15.9449 5.23293H15.9469Z" fill="url(#paint4_radial_131_334)"/>
<path d="M15.9469 5.23293C17.6085 3.36065 19.8725 3.65793 21.3196 5.23293L22.2016 6.25668C22.5067 6.58743 22.9497 6.76068 23.4005 6.72131L24.9696 6.25471C27.1097 5.79599 29.0528 7.39265 29.0528 9.8713V10.8045C29.0981 11.3164 29.545 11.6609 30.0037 11.8853L31.4212 12.476C33.4727 13.48 33.9845 15.8563 32.4903 17.8506L32.067 18.4117C31.685 18.9256 31.7638 19.6009 32.1418 20.1186L32.567 20.7112C34.1125 22.6131 33.2404 25.2216 31.059 26.1332L29.8384 26.6451C29.3777 26.836 29.1985 27.1648 29.1119 27.657L29.0272 29.2517C28.9753 29.6972 28.8351 30.1279 28.615 30.5187C28.395 30.9095 28.0993 31.2526 27.7453 31.528C27.3913 31.8034 26.986 32.0056 26.5531 32.1228C26.1201 32.24 25.6682 32.2699 25.2236 32.2107L23.3651 31.7146C22.9182 31.6516 22.363 31.7992 22.0657 32.2658L21.3964 33.1833C19.7308 35.0595 17.4864 34.7465 16.3524 33.6499L15.116 32.1516C14.7912 31.8366 14.3837 31.5689 13.8954 31.754L12.0251 32.2658C10.4777 32.4844 8.65854 31.2972 8.36914 29.7655L8.15257 27.5467C8.10952 27.3188 8.01277 27.1043 7.87035 26.9211C7.72793 26.738 7.54392 26.5914 7.33357 26.4935L6.02042 26.0426C4.04773 25.1232 3.38623 22.8966 4.52023 21.0361L5.26048 20.0123C5.40542 19.7737 5.47892 19.4985 5.47229 19.2194C5.46566 18.9402 5.37918 18.6688 5.22307 18.4373L4.67182 17.6557C3.10864 15.4311 4.18948 12.9465 6.50276 12.2003L7.01464 12.035C7.5777 11.8538 8.12304 11.3853 8.16832 10.7946L8.28251 9.36337C8.46757 7.04024 10.5899 5.70543 12.8205 6.38268L13.543 6.60318C14.24 6.87487 14.7833 6.64256 15.1653 6.22912L15.9449 5.23293H15.9469Z" fill="url(#paint5_radial_131_334)"/>
<path d="M15.9469 5.23293C17.6085 3.36065 19.8725 3.65793 21.3196 5.23293L22.2016 6.25668C22.5067 6.58743 22.9497 6.76068 23.4005 6.72131L24.9696 6.25471C27.1097 5.79599 29.0528 7.39265 29.0528 9.8713V10.8045C29.0981 11.3164 29.545 11.6609 30.0037 11.8853L31.4212 12.476C33.4727 13.48 33.9845 15.8563 32.4903 17.8506L32.067 18.4117C31.685 18.9256 31.7638 19.6009 32.1418 20.1186L32.567 20.7112C34.1125 22.6131 33.2404 25.2216 31.059 26.1332L29.8384 26.6451C29.3777 26.836 29.1985 27.1648 29.1119 27.657L29.0272 29.2517C28.9753 29.6972 28.8351 30.1279 28.615 30.5187C28.395 30.9095 28.0993 31.2526 27.7453 31.528C27.3913 31.8034 26.986 32.0056 26.5531 32.1228C26.1201 32.24 25.6682 32.2699 25.2236 32.2107L23.3651 31.7146C22.9182 31.6516 22.363 31.7992 22.0657 32.2658L21.3964 33.1833C19.7308 35.0595 17.4864 34.7465 16.3524 33.6499L15.116 32.1516C14.7912 31.8366 14.3837 31.5689 13.8954 31.754L12.0251 32.2658C10.4777 32.4844 8.65854 31.2972 8.36914 29.7655L8.15257 27.5467C8.10952 27.3188 8.01277 27.1043 7.87035 26.9211C7.72793 26.738 7.54392 26.5914 7.33357 26.4935L6.02042 26.0426C4.04773 25.1232 3.38623 22.8966 4.52023 21.0361L5.26048 20.0123C5.40542 19.7737 5.47892 19.4985 5.47229 19.2194C5.46566 18.9402 5.37918 18.6688 5.22307 18.4373L4.67182 17.6557C3.10864 15.4311 4.18948 12.9465 6.50276 12.2003L7.01464 12.035C7.5777 11.8538 8.12304 11.3853 8.16832 10.7946L8.28251 9.36337C8.46757 7.04024 10.5899 5.70543 12.8205 6.38268L13.543 6.60318C14.24 6.87487 14.7833 6.64256 15.1653 6.22912L15.9449 5.23293H15.9469Z" fill="url(#paint6_radial_131_334)"/>
<path d="M15.9469 5.23293C17.6085 3.36065 19.8725 3.65793 21.3196 5.23293L22.2016 6.25668C22.5067 6.58743 22.9497 6.76068 23.4005 6.72131L24.9696 6.25471C27.1097 5.79599 29.0528 7.39265 29.0528 9.8713V10.8045C29.0981 11.3164 29.545 11.6609 30.0037 11.8853L31.4212 12.476C33.4727 13.48 33.9845 15.8563 32.4903 17.8506L32.067 18.4117C31.685 18.9256 31.7638 19.6009 32.1418 20.1186L32.567 20.7112C34.1125 22.6131 33.2404 25.2216 31.059 26.1332L29.8384 26.6451C29.3777 26.836 29.1985 27.1648 29.1119 27.657L29.0272 29.2517C28.9753 29.6972 28.8351 30.1279 28.615 30.5187C28.395 30.9095 28.0993 31.2526 27.7453 31.528C27.3913 31.8034 26.986 32.0056 26.5531 32.1228C26.1201 32.24 25.6682 32.2699 25.2236 32.2107L23.3651 31.7146C22.9182 31.6516 22.363 31.7992 22.0657 32.2658L21.3964 33.1833C19.7308 35.0595 17.4864 34.7465 16.3524 33.6499L15.116 32.1516C14.7912 31.8366 14.3837 31.5689 13.8954 31.754L12.0251 32.2658C10.4777 32.4844 8.65854 31.2972 8.36914 29.7655L8.15257 27.5467C8.10952 27.3188 8.01277 27.1043 7.87035 26.9211C7.72793 26.738 7.54392 26.5914 7.33357 26.4935L6.02042 26.0426C4.04773 25.1232 3.38623 22.8966 4.52023 21.0361L5.26048 20.0123C5.40542 19.7737 5.47892 19.4985 5.47229 19.2194C5.46566 18.9402 5.37918 18.6688 5.22307 18.4373L4.67182 17.6557C3.10864 15.4311 4.18948 12.9465 6.50276 12.2003L7.01464 12.035C7.5777 11.8538 8.12304 11.3853 8.16832 10.7946L8.28251 9.36337C8.46757 7.04024 10.5899 5.70543 12.8205 6.38268L13.543 6.60318C14.24 6.87487 14.7833 6.64256 15.1653 6.22912L15.9449 5.23293H15.9469Z" fill="url(#paint7_radial_131_334)"/>
<path d="M15.9469 5.23293C17.6085 3.36065 19.8725 3.65793 21.3196 5.23293L22.2016 6.25668C22.5067 6.58743 22.9497 6.76068 23.4005 6.72131L24.9696 6.25471C27.1097 5.79599 29.0528 7.39265 29.0528 9.8713V10.8045C29.0981 11.3164 29.545 11.6609 30.0037 11.8853L31.4212 12.476C33.4727 13.48 33.9845 15.8563 32.4903 17.8506L32.067 18.4117C31.685 18.9256 31.7638 19.6009 32.1418 20.1186L32.567 20.7112C34.1125 22.6131 33.2404 25.2216 31.059 26.1332L29.8384 26.6451C29.3777 26.836 29.1985 27.1648 29.1119 27.657L29.0272 29.2517C28.9753 29.6972 28.8351 30.1279 28.615 30.5187C28.395 30.9095 28.0993 31.2526 27.7453 31.528C27.3913 31.8034 26.986 32.0056 26.5531 32.1228C26.1201 32.24 25.6682 32.2699 25.2236 32.2107L23.3651 31.7146C22.9182 31.6516 22.363 31.7992 22.0657 32.2658L21.3964 33.1833C19.7308 35.0595 17.4864 34.7465 16.3524 33.6499L15.116 32.1516C14.7912 31.8366 14.3837 31.5689 13.8954 31.754L12.0251 32.2658C10.4777 32.4844 8.65854 31.2972 8.36914 29.7655L8.15257 27.5467C8.10952 27.3188 8.01277 27.1043 7.87035 26.9211C7.72793 26.738 7.54392 26.5914 7.33357 26.4935L6.02042 26.0426C4.04773 25.1232 3.38623 22.8966 4.52023 21.0361L5.26048 20.0123C5.40542 19.7737 5.47892 19.4985 5.47229 19.2194C5.46566 18.9402 5.37918 18.6688 5.22307 18.4373L4.67182 17.6557C3.10864 15.4311 4.18948 12.9465 6.50276 12.2003L7.01464 12.035C7.5777 11.8538 8.12304 11.3853 8.16832 10.7946L8.28251 9.36337C8.46757 7.04024 10.5899 5.70543 12.8205 6.38268L13.543 6.60318C14.24 6.87487 14.7833 6.64256 15.1653 6.22912L15.9449 5.23293H15.9469Z" fill="url(#paint8_radial_131_334)"/>
<path d="M15.9469 5.23293C17.6085 3.36065 19.8725 3.65793 21.3196 5.23293L22.2016 6.25668C22.5067 6.58743 22.9497 6.76068 23.4005 6.72131L24.9696 6.25471C27.1097 5.79599 29.0528 7.39265 29.0528 9.8713V10.8045C29.0981 11.3164 29.545 11.6609 30.0037 11.8853L31.4212 12.476C33.4727 13.48 33.9845 15.8563 32.4903 17.8506L32.067 18.4117C31.685 18.9256 31.7638 19.6009 32.1418 20.1186L32.567 20.7112C34.1125 22.6131 33.2404 25.2216 31.059 26.1332L29.8384 26.6451C29.3777 26.836 29.1985 27.1648 29.1119 27.657L29.0272 29.2517C28.9753 29.6972 28.8351 30.1279 28.615 30.5187C28.395 30.9095 28.0993 31.2526 27.7453 31.528C27.3913 31.8034 26.986 32.0056 26.5531 32.1228C26.1201 32.24 25.6682 32.2699 25.2236 32.2107L23.3651 31.7146C22.9182 31.6516 22.363 31.7992 22.0657 32.2658L21.3964 33.1833C19.7308 35.0595 17.4864 34.7465 16.3524 33.6499L15.116 32.1516C14.7912 31.8366 14.3837 31.5689 13.8954 31.754L12.0251 32.2658C10.4777 32.4844 8.65854 31.2972 8.36914 29.7655L8.15257 27.5467C8.10952 27.3188 8.01277 27.1043 7.87035 26.9211C7.72793 26.738 7.54392 26.5914 7.33357 26.4935L6.02042 26.0426C4.04773 25.1232 3.38623 22.8966 4.52023 21.0361L5.26048 20.0123C5.40542 19.7737 5.47892 19.4985 5.47229 19.2194C5.46566 18.9402 5.37918 18.6688 5.22307 18.4373L4.67182 17.6557C3.10864 15.4311 4.18948 12.9465 6.50276 12.2003L7.01464 12.035C7.5777 11.8538 8.12304 11.3853 8.16832 10.7946L8.28251 9.36337C8.46757 7.04024 10.5899 5.70543 12.8205 6.38268L13.543 6.60318C14.24 6.87487 14.7833 6.64256 15.1653 6.22912L15.9449 5.23293H15.9469Z" fill="url(#paint9_radial_131_334)"/>
<g filter="url(#filter0_i_131_334)">
<path d="M18.6441 30.8798C20.195 30.9083 21.736 30.6275 23.1772 30.0536C24.6183 29.4798 25.9307 28.6246 27.0376 27.5378C28.1444 26.4511 29.0237 25.1547 29.6238 23.7243C30.224 22.2939 30.5332 20.7583 30.5332 19.2071C30.5332 17.6559 30.224 16.1203 29.6238 14.6899C29.0237 13.2596 28.1444 11.9632 27.0376 10.8764C25.9307 9.78969 24.6183 8.93443 23.1772 8.36061C21.736 7.78679 20.195 7.50592 18.6441 7.53441C15.5854 7.59059 12.671 8.84508 10.5278 11.028C8.38454 13.211 7.18378 16.1479 7.18378 19.2071C7.18378 22.2663 8.38454 25.2033 10.5278 27.3862C12.671 29.5692 15.5854 30.8237 18.6441 30.8798Z" fill="url(#paint10_radial_131_334)"/>
<path d="M18.6441 30.8798C20.195 30.9083 21.736 30.6275 23.1772 30.0536C24.6183 29.4798 25.9307 28.6246 27.0376 27.5378C28.1444 26.4511 29.0237 25.1547 29.6238 23.7243C30.224 22.2939 30.5332 20.7583 30.5332 19.2071C30.5332 17.6559 30.224 16.1203 29.6238 14.6899C29.0237 13.2596 28.1444 11.9632 27.0376 10.8764C25.9307 9.78969 24.6183 8.93443 23.1772 8.36061C21.736 7.78679 20.195 7.50592 18.6441 7.53441C15.5854 7.59059 12.671 8.84508 10.5278 11.028C8.38454 13.211 7.18378 16.1479 7.18378 19.2071C7.18378 22.2663 8.38454 25.2033 10.5278 27.3862C12.671 29.5692 15.5854 30.8237 18.6441 30.8798Z" fill="url(#paint11_radial_131_334)"/>
</g>
<path d="M24.1644 28.5174C25.2251 28.5409 26.2798 28.3524 27.2666 27.9628C28.2535 27.5732 29.1525 26.9904 29.911 26.2485C30.6695 25.5067 31.2722 24.6208 31.6836 23.6429C32.0951 22.665 32.307 21.6147 32.307 20.5538C32.307 19.4928 32.0951 18.4425 31.6836 17.4646C31.2722 16.4867 30.6695 15.6008 29.911 14.859C29.1525 14.1172 28.2535 13.5343 27.2666 13.1447C26.2798 12.7551 25.2251 12.5666 24.1644 12.5902C22.083 12.6364 20.1024 13.4958 18.6467 14.9842C17.191 16.4726 16.3759 18.4718 16.3759 20.5538C16.3759 22.6357 17.191 24.6349 18.6467 26.1233C20.1024 27.6117 22.083 28.4711 24.1644 28.5174Z" fill="url(#paint12_radial_131_334)"/>
<path d="M24.1644 28.5174C25.2251 28.5409 26.2798 28.3524 27.2666 27.9628C28.2535 27.5732 29.1525 26.9904 29.911 26.2485C30.6695 25.5067 31.2722 24.6208 31.6836 23.6429C32.0951 22.665 32.307 21.6147 32.307 20.5538C32.307 19.4928 32.0951 18.4425 31.6836 17.4646C31.2722 16.4867 30.6695 15.6008 29.911 14.859C29.1525 14.1172 28.2535 13.5343 27.2666 13.1447C26.2798 12.7551 25.2251 12.5666 24.1644 12.5902C22.083 12.6364 20.1024 13.4958 18.6467 14.9842C17.191 16.4726 16.3759 18.4718 16.3759 20.5538C16.3759 22.6357 17.191 24.6349 18.6467 26.1233C20.1024 27.6117 22.083 28.4711 24.1644 28.5174Z" fill="url(#paint13_radial_131_334)"/>
<g filter="url(#filter1_i_131_334)">
<path d="M17.1537 49.329L12.6059 55.5502C11.4837 57.0859 9.33778 57.4206 7.80215 56.2984C6.26653 55.1762 5.93184 53.0303 7.05403 51.4946L11.6018 45.2734C12.724 43.7378 14.87 43.4031 16.4056 44.5252C17.9412 45.6277 18.2759 47.7934 17.1537 49.329Z" fill="#535DFF"/>
<path d="M17.1537 49.329L12.6059 55.5502C11.4837 57.0859 9.33778 57.4206 7.80215 56.2984C6.26653 55.1762 5.93184 53.0303 7.05403 51.4946L11.6018 45.2734C12.724 43.7378 14.87 43.4031 16.4056 44.5252C17.9412 45.6277 18.2759 47.7934 17.1537 49.329Z" fill="url(#paint14_radial_131_334)"/>
</g>
<g filter="url(#filter2_i_131_334)">
<path d="M30.0825 49.329L25.5347 55.5502C24.4125 57.0859 22.2666 57.4206 20.7309 56.2984C19.1953 55.1762 18.8606 53.0303 19.9828 51.4946L24.5306 45.2734C25.6528 43.7378 27.7987 43.4031 29.3344 44.5252C30.87 45.6277 31.2047 47.7934 30.0825 49.329Z" fill="#535DFF"/>
<path d="M30.0825 49.329L25.5347 55.5502C24.4125 57.0859 22.2666 57.4206 20.7309 56.2984C19.1953 55.1762 18.8606 53.0303 19.9828 51.4946L24.5306 45.2734C25.6528 43.7378 27.7987 43.4031 29.3344 44.5252C30.87 45.6277 31.2047 47.7934 30.0825 49.329Z" fill="url(#paint15_radial_131_334)"/>
</g>
<g filter="url(#filter3_i_131_334)">
<path d="M43.0093 49.329L38.4615 55.5502C37.3393 57.0859 35.1934 57.4206 33.6577 56.2984C32.1221 55.1762 31.7874 53.0303 32.9096 51.4946L37.4574 45.2734C38.5796 43.7378 40.7256 43.4031 42.2612 44.5252C43.7968 45.6277 44.1315 47.7934 43.0093 49.329Z" fill="#535DFF"/>
<path d="M43.0093 49.329L38.4615 55.5502C37.3393 57.0859 35.1934 57.4206 33.6577 56.2984C32.1221 55.1762 31.7874 53.0303 32.9096 51.4946L37.4574 45.2734C38.5796 43.7378 40.7256 43.4031 42.2612 44.5252C43.7968 45.6277 44.1315 47.7934 43.0093 49.329Z" fill="url(#paint16_radial_131_334)"/>
</g>
<g filter="url(#filter4_i_131_334)">
<path d="M53.7961 12.5803C46.7834 5.74479 35.5635 5.86292 28.728 12.8756C26.9647 14.6762 25.6068 16.8329 24.7452 19.2012C24.7173 19.2755 24.673 19.3425 24.6156 19.3972C24.5582 19.452 24.4892 19.4931 24.4137 19.5175C24.3382 19.5419 24.2582 19.549 24.1796 19.5382C24.101 19.5274 24.0258 19.499 23.9597 19.4552C23.3437 19.0461 22.6912 18.6949 22.0106 18.4058C20.067 17.5144 17.9306 17.1259 15.7976 17.276C13.6646 17.4261 11.6036 18.11 9.80401 19.2649C8.00443 20.4197 6.52404 22.0084 5.49893 23.8849C4.47382 25.7614 3.93689 27.8655 3.9375 30.0037C3.9375 33.0061 4.98488 35.7722 6.72328 37.9634C7.91913 39.5379 9.46351 40.814 11.2353 41.6915C13.007 42.569 14.958 43.0241 16.9352 43.0211H42.0013C44.642 43.0234 47.2448 42.3933 49.5921 41.1836C51.9394 39.9738 53.9628 38.2195 55.4932 36.0675C60.8678 29.0351 60.2949 18.9216 53.7941 12.5803H53.7961Z" fill="#D5D4DA"/>
<path d="M53.7961 12.5803C46.7834 5.74479 35.5635 5.86292 28.728 12.8756C26.9647 14.6762 25.6068 16.8329 24.7452 19.2012C24.7173 19.2755 24.673 19.3425 24.6156 19.3972C24.5582 19.452 24.4892 19.4931 24.4137 19.5175C24.3382 19.5419 24.2582 19.549 24.1796 19.5382C24.101 19.5274 24.0258 19.499 23.9597 19.4552C23.3437 19.0461 22.6912 18.6949 22.0106 18.4058C20.067 17.5144 17.9306 17.1259 15.7976 17.276C13.6646 17.4261 11.6036 18.11 9.80401 19.2649C8.00443 20.4197 6.52404 22.0084 5.49893 23.8849C4.47382 25.7614 3.93689 27.8655 3.9375 30.0037C3.9375 33.0061 4.98488 35.7722 6.72328 37.9634C7.91913 39.5379 9.46351 40.814 11.2353 41.6915C13.007 42.569 14.958 43.0241 16.9352 43.0211H42.0013C44.642 43.0234 47.2448 42.3933 49.5921 41.1836C51.9394 39.9738 53.9628 38.2195 55.4932 36.0675C60.8678 29.0351 60.2949 18.9216 53.7941 12.5803H53.7961Z" fill="url(#paint17_linear_131_334)"/>
</g>
<path d="M53.7961 12.5803C46.7834 5.74479 35.5635 5.86292 28.728 12.8756C26.9647 14.6762 25.6068 16.8329 24.7452 19.2012C24.7173 19.2755 24.673 19.3425 24.6156 19.3972C24.5582 19.452 24.4892 19.4931 24.4137 19.5175C24.3382 19.5419 24.2582 19.549 24.1796 19.5382C24.101 19.5274 24.0258 19.499 23.9597 19.4552C23.3437 19.0461 22.6912 18.6949 22.0106 18.4058C20.067 17.5144 17.9306 17.1259 15.7976 17.276C13.6646 17.4261 11.6036 18.11 9.80401 19.2649C8.00443 20.4197 6.52404 22.0084 5.49893 23.8849C4.47382 25.7614 3.93689 27.8655 3.9375 30.0037C3.9375 33.0061 4.98488 35.7722 6.72328 37.9634C7.91913 39.5379 9.46351 40.814 11.2353 41.6915C13.007 42.569 14.958 43.0241 16.9352 43.0211H42.0013C44.642 43.0234 47.2448 42.3933 49.5921 41.1836C51.9394 39.9738 53.9628 38.2195 55.4932 36.0675C60.8678 29.0351 60.2949 18.9216 53.7941 12.5803H53.7961Z" fill="url(#paint18_radial_131_334)"/>
<path d="M53.7961 12.5803C46.7834 5.74479 35.5635 5.86292 28.728 12.8756C26.9647 14.6762 25.6068 16.8329 24.7452 19.2012C24.7173 19.2755 24.673 19.3425 24.6156 19.3972C24.5582 19.452 24.4892 19.4931 24.4137 19.5175C24.3382 19.5419 24.2582 19.549 24.1796 19.5382C24.101 19.5274 24.0258 19.499 23.9597 19.4552C23.3437 19.0461 22.6912 18.6949 22.0106 18.4058C20.067 17.5144 17.9306 17.1259 15.7976 17.276C13.6646 17.4261 11.6036 18.11 9.80401 19.2649C8.00443 20.4197 6.52404 22.0084 5.49893 23.8849C4.47382 25.7614 3.93689 27.8655 3.9375 30.0037C3.9375 33.0061 4.98488 35.7722 6.72328 37.9634C7.91913 39.5379 9.46351 40.814 11.2353 41.6915C13.007 42.569 14.958 43.0241 16.9352 43.0211H42.0013C44.642 43.0234 47.2448 42.3933 49.5921 41.1836C51.9394 39.9738 53.9628 38.2195 55.4932 36.0675C60.8678 29.0351 60.2949 18.9216 53.7941 12.5803H53.7961Z" fill="url(#paint19_radial_131_334)"/>
<path d="M53.7961 12.5803C46.7834 5.74479 35.5635 5.86292 28.728 12.8756C26.9647 14.6762 25.6068 16.8329 24.7452 19.2012C24.7173 19.2755 24.673 19.3425 24.6156 19.3972C24.5582 19.452 24.4892 19.4931 24.4137 19.5175C24.3382 19.5419 24.2582 19.549 24.1796 19.5382C24.101 19.5274 24.0258 19.499 23.9597 19.4552C23.3437 19.0461 22.6912 18.6949 22.0106 18.4058C20.067 17.5144 17.9306 17.1259 15.7976 17.276C13.6646 17.4261 11.6036 18.11 9.80401 19.2649C8.00443 20.4197 6.52404 22.0084 5.49893 23.8849C4.47382 25.7614 3.93689 27.8655 3.9375 30.0037C3.9375 33.0061 4.98488 35.7722 6.72328 37.9634C7.91913 39.5379 9.46351 40.814 11.2353 41.6915C13.007 42.569 14.958 43.0241 16.9352 43.0211H42.0013C44.642 43.0234 47.2448 42.3933 49.5921 41.1836C51.9394 39.9738 53.9628 38.2195 55.4932 36.0675C60.8678 29.0351 60.2949 18.9216 53.7941 12.5803H53.7961Z" fill="url(#paint20_radial_131_334)"/>
<path d="M53.7961 12.5803C46.7834 5.74479 35.5635 5.86292 28.728 12.8756C26.9647 14.6762 25.6068 16.8329 24.7452 19.2012C24.7173 19.2755 24.673 19.3425 24.6156 19.3972C24.5582 19.452 24.4892 19.4931 24.4137 19.5175C24.3382 19.5419 24.2582 19.549 24.1796 19.5382C24.101 19.5274 24.0258 19.499 23.9597 19.4552C23.3437 19.0461 22.6912 18.6949 22.0106 18.4058C20.067 17.5144 17.9306 17.1259 15.7976 17.276C13.6646 17.4261 11.6036 18.11 9.80401 19.2649C8.00443 20.4197 6.52404 22.0084 5.49893 23.8849C4.47382 25.7614 3.93689 27.8655 3.9375 30.0037C3.9375 33.0061 4.98488 35.7722 6.72328 37.9634C7.91913 39.5379 9.46351 40.814 11.2353 41.6915C13.007 42.569 14.958 43.0241 16.9352 43.0211H42.0013C44.642 43.0234 47.2448 42.3933 49.5921 41.1836C51.9394 39.9738 53.9628 38.2195 55.4932 36.0675C60.8678 29.0351 60.2949 18.9216 53.7941 12.5803H53.7961Z" fill="url(#paint21_radial_131_334)"/>
<path d="M53.7961 12.5803C46.7834 5.74479 35.5635 5.86292 28.728 12.8756C26.9647 14.6762 25.6068 16.8329 24.7452 19.2012C24.7173 19.2755 24.673 19.3425 24.6156 19.3972C24.5582 19.452 24.4892 19.4931 24.4137 19.5175C24.3382 19.5419 24.2582 19.549 24.1796 19.5382C24.101 19.5274 24.0258 19.499 23.9597 19.4552C23.3437 19.0461 22.6912 18.6949 22.0106 18.4058C20.067 17.5144 17.9306 17.1259 15.7976 17.276C13.6646 17.4261 11.6036 18.11 9.80401 19.2649C8.00443 20.4197 6.52404 22.0084 5.49893 23.8849C4.47382 25.7614 3.93689 27.8655 3.9375 30.0037C3.9375 33.0061 4.98488 35.7722 6.72328 37.9634C7.91913 39.5379 9.46351 40.814 11.2353 41.6915C13.007 42.569 14.958 43.0241 16.9352 43.0211H42.0013C44.642 43.0234 47.2448 42.3933 49.5921 41.1836C51.9394 39.9738 53.9628 38.2195 55.4932 36.0675C60.8678 29.0351 60.2949 18.9216 53.7941 12.5803H53.7961Z" fill="url(#paint22_linear_131_334)"/>
<g filter="url(#filter5_f_131_334)">
<path d="M30.2872 34.8922C29.0535 36.7634 27.5412 38.4351 25.8024 39.8495H34.8331C33.0848 38.8119 31.0747 36.1128 30.2872 34.8922Z" fill="#EAE0FF"/>
</g>
<defs>
<filter id="filter0_i_131_334" x="6.88378" y="7.53244" width="23.6494" height="23.6494" filterUnits="userSpaceOnUse" color-interpolation-filters="sRGB">
<feFlood flood-opacity="0" result="BackgroundImageFix"/>
<feBlend mode="normal" in="SourceGraphic" in2="BackgroundImageFix" result="shape"/>
<feColorMatrix in="SourceAlpha" type="matrix" values="0 0 0 0 0 0 0 0 0 0 0 0 0 0 0 0 0 0 127 0" result="hardAlpha"/>
<feOffset dx="-0.3" dy="0.3"/>
<feGaussianBlur stdDeviation="0.15"/>
<feComposite in2="hardAlpha" operator="arithmetic" k2="-1" k3="1"/>
<feColorMatrix type="matrix" values="0 0 0 0 0.921569 0 0 0 0 0.47451 0 0 0 0 0.133333 0 0 0 1 0"/>
<feBlend mode="normal" in2="shape" result="effect1_innerShadow_131_334"/>
</filter>
<filter id="filter1_i_131_334" x="6.39032" y="43.7615" width="12.0271" height="13.2006" filterUnits="userSpaceOnUse" color-interpolation-filters="sRGB">
<feFlood flood-opacity="0" result="BackgroundImageFix"/>
<feBlend mode="normal" in="SourceGraphic" in2="BackgroundImageFix" result="shape"/>
<feColorMatrix in="SourceAlpha" type="matrix" values="0 0 0 0 0 0 0 0 0 0 0 0 0 0 0 0 0 0 127 0" result="hardAlpha"/>
<feOffset dx="0.6" dy="-0.1"/>
<feGaussianBlur stdDeviation="0.75"/>
<feComposite in2="hardAlpha" operator="arithmetic" k2="-1" k3="1"/>
<feColorMatrix type="matrix" values="0 0 0 0 0.256493 0 0 0 0 0.282719 0 0 0 0 0.741667 0 0 0 1 0"/>
<feBlend mode="normal" in2="shape" result="effect1_innerShadow_131_334"/>
</filter>
<filter id="filter2_i_131_334" x="19.3191" y="43.7615" width="12.0271" height="13.2006" filterUnits="userSpaceOnUse" color-interpolation-filters="sRGB">
<feFlood flood-opacity="0" result="BackgroundImageFix"/>
<feBlend mode="normal" in="SourceGraphic" in2="BackgroundImageFix" result="shape"/>
<feColorMatrix in="SourceAlpha" type="matrix" values="0 0 0 0 0 0 0 0 0 0 0 0 0 0 0 0 0 0 127 0" result="hardAlpha"/>
<feOffset dx="0.6" dy="-0.1"/>
<feGaussianBlur stdDeviation="0.75"/>
<feComposite in2="hardAlpha" operator="arithmetic" k2="-1" k3="1"/>
<feColorMatrix type="matrix" values="0 0 0 0 0.256493 0 0 0 0 0.282719 0 0 0 0 0.741667 0 0 0 1 0"/>
<feBlend mode="normal" in2="shape" result="effect1_innerShadow_131_334"/>
</filter>
<filter id="filter3_i_131_334" x="32.2459" y="43.7615" width="12.0271" height="13.2006" filterUnits="userSpaceOnUse" color-interpolation-filters="sRGB">
<feFlood flood-opacity="0" result="BackgroundImageFix"/>
<feBlend mode="normal" in="SourceGraphic" in2="BackgroundImageFix" result="shape"/>
<feColorMatrix in="SourceAlpha" type="matrix" values="0 0 0 0 0 0 0 0 0 0 0 0 0 0 0 0 0 0 127 0" result="hardAlpha"/>
<feOffset dx="0.6" dy="-0.1"/>
<feGaussianBlur stdDeviation="0.75"/>
<feComposite in2="hardAlpha" operator="arithmetic" k2="-1" k3="1"/>
<feColorMatrix type="matrix" values="0 0 0 0 0.256493 0 0 0 0 0.282719 0 0 0 0 0.741667 0 0 0 1 0"/>
<feBlend mode="normal" in2="shape" result="effect1_innerShadow_131_334"/>
</filter>
<filter id="filter4_i_131_334" x="3.9375" y="6.53372" width="55.2002" height="36.4874" filterUnits="userSpaceOnUse" color-interpolation-filters="sRGB">
<feFlood flood-opacity="0" result="BackgroundImageFix"/>
<feBlend mode="normal" in="SourceGraphic" in2="BackgroundImageFix" result="shape"/>
<feColorMatrix in="SourceAlpha" type="matrix" values="0 0 0 0 0 0 0 0 0 0 0 0 0 0 0 0 0 0 127 0" result="hardAlpha"/>
<feOffset dy="-1"/>
<feGaussianBlur stdDeviation="1"/>
<feComposite in2="hardAlpha" operator="arithmetic" k2="-1" k3="1"/>
<feColorMatrix type="matrix" values="0 0 0 0 0.815686 0 0 0 0 0.784314 0 0 0 0 0.956863 0 0 0 1 0"/>
<feBlend mode="normal" in2="shape" result="effect1_innerShadow_131_334"/>
</filter>
<filter id="filter5_f_131_334" x="24.3024" y="33.3922" width="12.0306" height="7.95731" filterUnits="userSpaceOnUse" color-interpolation-filters="sRGB">
<feFlood flood-opacity="0" result="BackgroundImageFix"/>
<feBlend mode="normal" in="SourceGraphic" in2="BackgroundImageFix" result="shape"/>
<feGaussianBlur stdDeviation="0.75" result="effect1_foregroundBlur_131_334"/>
</filter>
<linearGradient id="paint0_linear_131_334" x1="27.7101" y1="9.07593" x2="11.0309" y2="30.3561" gradientUnits="userSpaceOnUse">
<stop stop-color="#FC8B23"/>
<stop offset="1" stop-color="#E67639"/>
</linearGradient>
<radialGradient id="paint1_radial_131_334" cx="0" cy="0" r="1" gradientUnits="userSpaceOnUse" gradientTransform="translate(21.4534 5.34909) rotate(138.155) scale(4.10596 3.62274)">
<stop offset="0.3" stop-color="#FFA13A"/>
<stop offset="1" stop-color="#FFA13A" stop-opacity="0"/>
</radialGradient>
<radialGradient id="paint2_radial_131_334" cx="0" cy="0" r="1" gradientUnits="userSpaceOnUse" gradientTransform="translate(10.7704 4.05259) rotate(67.811) scale(6.52753 5.7593)">
<stop offset="0.3" stop-color="#FF942A"/>
<stop offset="1" stop-color="#FF942A" stop-opacity="0"/>
</radialGradient>
<radialGradient id="paint3_radial_131_334" cx="0" cy="0" r="1" gradientUnits="userSpaceOnUse" gradientTransform="translate(28.3008 10.141) rotate(-164.745) scale(2.60261 3.60365)">
<stop offset="0.3" stop-color="#FFA13D"/>
<stop offset="1" stop-color="#FFA13D" stop-opacity="0"/>
</radialGradient>
<radialGradient id="paint4_radial_131_334" cx="0" cy="0" r="1" gradientUnits="userSpaceOnUse" gradientTransform="translate(33.5495 13.9315) rotate(154.195) scale(4.61455 3.40818)">
<stop offset="0.3" stop-color="#FFA13D"/>
<stop offset="1" stop-color="#FFA13D" stop-opacity="0"/>
</radialGradient>
<radialGradient id="paint5_radial_131_334" cx="0" cy="0" r="1" gradientUnits="userSpaceOnUse" gradientTransform="translate(34.5542 21.7374) rotate(-173.379) scale(5.14745 2.90078)">
<stop offset="0.3" stop-color="#FFA13D"/>
<stop offset="1" stop-color="#FFA13D" stop-opacity="0"/>
</radialGradient>
<radialGradient id="paint6_radial_131_334" cx="0" cy="0" r="1" gradientUnits="userSpaceOnUse" gradientTransform="translate(29.9447 27.72) rotate(-43.9639) scale(4.66916 4.49818)">
<stop stop-color="#E0762A"/>
<stop offset="1" stop-color="#E0762A" stop-opacity="0"/>
</radialGradient>
<radialGradient id="paint7_radial_131_334" cx="0" cy="0" r="1" gradientUnits="userSpaceOnUse" gradientTransform="translate(8.30417 26.6234) rotate(-127.747) scale(3.5796 3.44854)">
<stop stop-color="#E0762A"/>
<stop offset="1" stop-color="#E0762A" stop-opacity="0"/>
</radialGradient>
<radialGradient id="paint8_radial_131_334" cx="0" cy="0" r="1" gradientUnits="userSpaceOnUse" gradientTransform="translate(3.4197 14.5254) rotate(25.2777) scale(3.63509 4.39351)">
<stop stop-color="#F0851D"/>
<stop offset="1" stop-color="#F0851D" stop-opacity="0"/>
</radialGradient>
<radialGradient id="paint9_radial_131_334" cx="0" cy="0" r="1" gradientUnits="userSpaceOnUse" gradientTransform="translate(25.1173 32.9017) rotate(-142.487) scale(4.23811 3.99829)">
<stop offset="0.337" stop-color="#E3745B"/>
<stop offset="1" stop-color="#E3745B" stop-opacity="0"/>
</radialGradient>
<radialGradient id="paint10_radial_131_334" cx="0" cy="0" r="1" gradientUnits="userSpaceOnUse" gradientTransform="translate(25.2689 12.4425) rotate(117.739) scale(20.8306 25.7237)">
<stop offset="0.172" stop-color="#FFD13D"/>
<stop offset="1" stop-color="#D89A29"/>
</radialGradient>
<radialGradient id="paint11_radial_131_334" cx="0" cy="0" r="1" gradientUnits="userSpaceOnUse" gradientTransform="translate(28.1805 17.2134) rotate(168.299) scale(24.8598 20.9888)">
<stop offset="0.62" stop-color="#DCA225" stop-opacity="0"/>
<stop offset="1" stop-color="#DCA225"/>
</radialGradient>
<radialGradient id="paint12_radial_131_334" cx="0" cy="0" r="1" gradientUnits="userSpaceOnUse" gradientTransform="translate(27.0333 17.5976) rotate(-172.463) scale(10.9305)">
<stop offset="0.309" stop-color="#E8E8E9"/>
<stop offset="1" stop-color="#D2D2D2"/>
</radialGradient>
<radialGradient id="paint13_radial_131_334" cx="0" cy="0" r="1" gradientUnits="userSpaceOnUse" gradientTransform="translate(25.0155 19.8792) rotate(-141.242) scale(5.93377 5.4367)">
<stop stop-color="#CDCDCE"/>
<stop offset="1" stop-color="#CDCDCE" stop-opacity="0"/>
</radialGradient>
<radialGradient id="paint14_radial_131_334" cx="0" cy="0" r="1" gradientUnits="userSpaceOnUse" gradientTransform="translate(17.8178 45.6959) rotate(149.241) scale(4.46089 3.86952)">
<stop stop-color="#6779FF"/>
<stop offset="1" stop-color="#6779FF" stop-opacity="0"/>
</radialGradient>
<radialGradient id="paint15_radial_131_334" cx="0" cy="0" r="1" gradientUnits="userSpaceOnUse" gradientTransform="translate(30.7446 45.6958) rotate(149.241) scale(4.46089 3.86952)">
<stop stop-color="#6779FF"/>
<stop offset="1" stop-color="#6779FF" stop-opacity="0"/>
</radialGradient>
<radialGradient id="paint16_radial_131_334" cx="0" cy="0" r="1" gradientUnits="userSpaceOnUse" gradientTransform="translate(43.6751 45.6947) rotate(149.241) scale(4.46089 3.86952)">
<stop stop-color="#6779FF"/>
<stop offset="1" stop-color="#6779FF" stop-opacity="0"/>
</radialGradient>
<linearGradient id="paint17_linear_131_334" x1="37.1759" y1="41.1114" x2="37.1759" y2="26.3005" gradientUnits="userSpaceOnUse">
<stop stop-color="#DED7FA"/>
<stop offset="1" stop-color="#DED7FA" stop-opacity="0"/>
</linearGradient>
<radialGradient id="paint18_radial_131_334" cx="0" cy="0" r="1" gradientUnits="userSpaceOnUse" gradientTransform="translate(51.9868 19.463) rotate(136.5) scale(21.9894 23.588)">
<stop offset="0.179" stop-color="#FCFBFE"/>
<stop offset="1" stop-color="#FCFBFE" stop-opacity="0"/>
</radialGradient>
<radialGradient id="paint19_radial_131_334" cx="0" cy="0" r="1" gradientUnits="userSpaceOnUse" gradientTransform="translate(17.0635 27.8951) rotate(144.444) scale(13.4903 14.1358)">
<stop stop-color="#FCFBFE"/>
<stop offset="1" stop-color="#FCFBFE" stop-opacity="0"/>
</radialGradient>
<radialGradient id="paint20_radial_131_334" cx="0" cy="0" r="1" gradientUnits="userSpaceOnUse" gradientTransform="translate(49.7011 24.2235) rotate(166.654) scale(47.0334 37.0405)">
<stop offset="0.815" stop-color="#CECCD7" stop-opacity="0"/>
<stop offset="1" stop-color="#CECCD7"/>
</radialGradient>
<radialGradient id="paint21_radial_131_334" cx="0" cy="0" r="1" gradientUnits="userSpaceOnUse" gradientTransform="translate(11.1234 45.0253) rotate(-50.572) scale(16.7468 23.1112)">
<stop stop-color="#D0C9EE"/>
<stop offset="1" stop-color="#D0C9EE" stop-opacity="0"/>
</radialGradient>
<linearGradient id="paint22_linear_131_334" x1="44.8048" y1="46.7046" x2="44.9446" y2="34.3389" gradientUnits="userSpaceOnUse">
<stop stop-color="#CFC6FF"/>
<stop offset="1" stop-color="#CFC6FF" stop-opacity="0"/>
</linearGradient>
</defs>
</svg>
