<svg width="46" height="48" viewBox="0 0 46 48" fill="none" xmlns="http://www.w3.org/2000/svg">
<g filter="url(#filter0_i_177_180)">
<path d="M18.7778 2.00903C21.3813 -0.89654 24.9193 -0.432796 27.1829 2.00903L28.5628 3.59588C29.042 4.11358 29.7336 4.38003 30.4372 4.32101L32.8911 3.59588C36.2371 2.88424 39.2773 5.36148 39.2773 9.20803V10.6583C39.3486 11.4492 40.0454 11.9854 40.7642 12.3345L42.9819 13.2536C46.1886 14.8084 46.9924 18.4981 44.6541 21.5925L43.9913 22.4627C43.3965 23.2603 43.5172 24.3092 44.1103 25.1102L44.773 26.0327C47.1895 28.9838 45.8266 33.031 42.4143 34.4475L40.5059 35.2384C39.7871 35.5369 39.5033 36.0479 39.3707 36.8101L39.2382 39.2856C38.7726 42.6853 35.7307 44.2199 33.2904 43.8776L30.3828 43.1069C29.6844 43.0091 28.816 43.2384 28.3504 43.9636L27.3018 45.3868C24.7001 48.2975 21.1875 47.8135 19.4168 46.112L17.4812 43.7848C16.9748 43.2991 16.3358 42.8826 15.5711 43.1693L12.6448 43.9619C10.23 44.3025 7.38359 42.461 6.92986 40.0816L6.58999 36.6381C6.52267 36.2849 6.37168 35.9527 6.14948 35.6689C5.92728 35.3851 5.64025 35.1578 5.31207 35.0057L3.25923 34.3059C0.171486 32.8792 -0.861727 29.4222 0.91071 26.5369L2.06628 24.9484C2.29357 24.5781 2.40909 24.151 2.39915 23.7176C2.38921 23.2842 2.25422 22.8627 2.0102 22.5032L1.14862 21.289C-1.29506 17.8387 0.394103 13.9804 4.01375 12.8235L4.81245 12.5689C5.69272 12.2873 6.5458 11.5605 6.61718 10.6448L6.79731 8.42219C7.0862 4.81342 10.4034 2.74259 13.8939 3.79655L15.0239 4.13719C16.1115 4.55878 16.9646 4.19959 17.5594 3.55709L18.7812 2.01072L18.7778 2.00903Z" fill="url(#paint0_linear_177_180)"/>
<path d="M18.7778 2.00903C21.3813 -0.89654 24.9193 -0.432796 27.1829 2.00903L28.5628 3.59588C29.042 4.11358 29.7336 4.38003 30.4372 4.32101L32.8911 3.59588C36.2371 2.88424 39.2773 5.36148 39.2773 9.20803V10.6583C39.3486 11.4492 40.0454 11.9854 40.7642 12.3345L42.9819 13.2536C46.1886 14.8084 46.9924 18.4981 44.6541 21.5925L43.9913 22.4627C43.3965 23.2603 43.5172 24.3092 44.1103 25.1102L44.773 26.0327C47.1895 28.9838 45.8266 33.031 42.4143 34.4475L40.5059 35.2384C39.7871 35.5369 39.5033 36.0479 39.3707 36.8101L39.2382 39.2856C38.7726 42.6853 35.7307 44.2199 33.2904 43.8776L30.3828 43.1069C29.6844 43.0091 28.816 43.2384 28.3504 43.9636L27.3018 45.3868C24.7001 48.2975 21.1875 47.8135 19.4168 46.112L17.4812 43.7848C16.9748 43.2991 16.3358 42.8826 15.5711 43.1693L12.6448 43.9619C10.23 44.3025 7.38359 42.461 6.92986 40.0816L6.58999 36.6381C6.52267 36.2849 6.37168 35.9527 6.14948 35.6689C5.92728 35.3851 5.64025 35.1578 5.31207 35.0057L3.25923 34.3059C0.171486 32.8792 -0.861727 29.4222 0.91071 26.5369L2.06628 24.9484C2.29357 24.5781 2.40909 24.151 2.39915 23.7176C2.38921 23.2842 2.25422 22.8627 2.0102 22.5032L1.14862 21.289C-1.29506 17.8387 0.394103 13.9804 4.01375 12.8235L4.81245 12.5689C5.69272 12.2873 6.5458 11.5605 6.61718 10.6448L6.79731 8.42219C7.0862 4.81342 10.4034 2.74259 13.8939 3.79655L15.0239 4.13719C16.1115 4.55878 16.9646 4.19959 17.5594 3.55709L18.7812 2.01072L18.7778 2.00903Z" fill="url(#paint1_radial_177_180)"/>
<path d="M18.7778 2.00903C21.3813 -0.89654 24.9193 -0.432796 27.1829 2.00903L28.5628 3.59588C29.042 4.11358 29.7336 4.38003 30.4372 4.32101L32.8911 3.59588C36.2371 2.88424 39.2773 5.36148 39.2773 9.20803V10.6583C39.3486 11.4492 40.0454 11.9854 40.7642 12.3345L42.9819 13.2536C46.1886 14.8084 46.9924 18.4981 44.6541 21.5925L43.9913 22.4627C43.3965 23.2603 43.5172 24.3092 44.1103 25.1102L44.773 26.0327C47.1895 28.9838 45.8266 33.031 42.4143 34.4475L40.5059 35.2384C39.7871 35.5369 39.5033 36.0479 39.3707 36.8101L39.2382 39.2856C38.7726 42.6853 35.7307 44.2199 33.2904 43.8776L30.3828 43.1069C29.6844 43.0091 28.816 43.2384 28.3504 43.9636L27.3018 45.3868C24.7001 48.2975 21.1875 47.8135 19.4168 46.112L17.4812 43.7848C16.9748 43.2991 16.3358 42.8826 15.5711 43.1693L12.6448 43.9619C10.23 44.3025 7.38359 42.461 6.92986 40.0816L6.58999 36.6381C6.52267 36.2849 6.37168 35.9527 6.14948 35.6689C5.92728 35.3851 5.64025 35.1578 5.31207 35.0057L3.25923 34.3059C0.171486 32.8792 -0.861727 29.4222 0.91071 26.5369L2.06628 24.9484C2.29357 24.5781 2.40909 24.151 2.39915 23.7176C2.38921 23.2842 2.25422 22.8627 2.0102 22.5032L1.14862 21.289C-1.29506 17.8387 0.394103 13.9804 4.01375 12.8235L4.81245 12.5689C5.69272 12.2873 6.5458 11.5605 6.61718 10.6448L6.79731 8.42219C7.0862 4.81342 10.4034 2.74259 13.8939 3.79655L15.0239 4.13719C16.1115 4.55878 16.9646 4.19959 17.5594 3.55709L18.7812 2.01072L18.7778 2.00903Z" fill="url(#paint2_radial_177_180)"/>
<path d="M18.7778 2.00903C21.3813 -0.89654 24.9193 -0.432796 27.1829 2.00903L28.5628 3.59588C29.042 4.11358 29.7336 4.38003 30.4372 4.32101L32.8911 3.59588C36.2371 2.88424 39.2773 5.36148 39.2773 9.20803V10.6583C39.3486 11.4492 40.0454 11.9854 40.7642 12.3345L42.9819 13.2536C46.1886 14.8084 46.9924 18.4981 44.6541 21.5925L43.9913 22.4627C43.3965 23.2603 43.5172 24.3092 44.1103 25.1102L44.773 26.0327C47.1895 28.9838 45.8266 33.031 42.4143 34.4475L40.5059 35.2384C39.7871 35.5369 39.5033 36.0479 39.3707 36.8101L39.2382 39.2856C38.7726 42.6853 35.7307 44.2199 33.2904 43.8776L30.3828 43.1069C29.6844 43.0091 28.816 43.2384 28.3504 43.9636L27.3018 45.3868C24.7001 48.2975 21.1875 47.8135 19.4168 46.112L17.4812 43.7848C16.9748 43.2991 16.3358 42.8826 15.5711 43.1693L12.6448 43.9619C10.23 44.3025 7.38359 42.461 6.92986 40.0816L6.58999 36.6381C6.52267 36.2849 6.37168 35.9527 6.14948 35.6689C5.92728 35.3851 5.64025 35.1578 5.31207 35.0057L3.25923 34.3059C0.171486 32.8792 -0.861727 29.4222 0.91071 26.5369L2.06628 24.9484C2.29357 24.5781 2.40909 24.151 2.39915 23.7176C2.38921 23.2842 2.25422 22.8627 2.0102 22.5032L1.14862 21.289C-1.29506 17.8387 0.394103 13.9804 4.01375 12.8235L4.81245 12.5689C5.69272 12.2873 6.5458 11.5605 6.61718 10.6448L6.79731 8.42219C7.0862 4.81342 10.4034 2.74259 13.8939 3.79655L15.0239 4.13719C16.1115 4.55878 16.9646 4.19959 17.5594 3.55709L18.7812 2.01072L18.7778 2.00903Z" fill="url(#paint3_radial_177_180)"/>
<path d="M18.7778 2.00903C21.3813 -0.89654 24.9193 -0.432796 27.1829 2.00903L28.5628 3.59588C29.042 4.11358 29.7336 4.38003 30.4372 4.32101L32.8911 3.59588C36.2371 2.88424 39.2773 5.36148 39.2773 9.20803V10.6583C39.3486 11.4492 40.0454 11.9854 40.7642 12.3345L42.9819 13.2536C46.1886 14.8084 46.9924 18.4981 44.6541 21.5925L43.9913 22.4627C43.3965 23.2603 43.5172 24.3092 44.1103 25.1102L44.773 26.0327C47.1895 28.9838 45.8266 33.031 42.4143 34.4475L40.5059 35.2384C39.7871 35.5369 39.5033 36.0479 39.3707 36.8101L39.2382 39.2856C38.7726 42.6853 35.7307 44.2199 33.2904 43.8776L30.3828 43.1069C29.6844 43.0091 28.816 43.2384 28.3504 43.9636L27.3018 45.3868C24.7001 48.2975 21.1875 47.8135 19.4168 46.112L17.4812 43.7848C16.9748 43.2991 16.3358 42.8826 15.5711 43.1693L12.6448 43.9619C10.23 44.3025 7.38359 42.461 6.92986 40.0816L6.58999 36.6381C6.52267 36.2849 6.37168 35.9527 6.14948 35.6689C5.92728 35.3851 5.64025 35.1578 5.31207 35.0057L3.25923 34.3059C0.171486 32.8792 -0.861727 29.4222 0.91071 26.5369L2.06628 24.9484C2.29357 24.5781 2.40909 24.151 2.39915 23.7176C2.38921 23.2842 2.25422 22.8627 2.0102 22.5032L1.14862 21.289C-1.29506 17.8387 0.394103 13.9804 4.01375 12.8235L4.81245 12.5689C5.69272 12.2873 6.5458 11.5605 6.61718 10.6448L6.79731 8.42219C7.0862 4.81342 10.4034 2.74259 13.8939 3.79655L15.0239 4.13719C16.1115 4.55878 16.9646 4.19959 17.5594 3.55709L18.7812 2.01072L18.7778 2.00903Z" fill="url(#paint4_radial_177_180)"/>
<path d="M18.7778 2.00903C21.3813 -0.89654 24.9193 -0.432796 27.1829 2.00903L28.5628 3.59588C29.042 4.11358 29.7336 4.38003 30.4372 4.32101L32.8911 3.59588C36.2371 2.88424 39.2773 5.36148 39.2773 9.20803V10.6583C39.3486 11.4492 40.0454 11.9854 40.7642 12.3345L42.9819 13.2536C46.1886 14.8084 46.9924 18.4981 44.6541 21.5925L43.9913 22.4627C43.3965 23.2603 43.5172 24.3092 44.1103 25.1102L44.773 26.0327C47.1895 28.9838 45.8266 33.031 42.4143 34.4475L40.5059 35.2384C39.7871 35.5369 39.5033 36.0479 39.3707 36.8101L39.2382 39.2856C38.7726 42.6853 35.7307 44.2199 33.2904 43.8776L30.3828 43.1069C29.6844 43.0091 28.816 43.2384 28.3504 43.9636L27.3018 45.3868C24.7001 48.2975 21.1875 47.8135 19.4168 46.112L17.4812 43.7848C16.9748 43.2991 16.3358 42.8826 15.5711 43.1693L12.6448 43.9619C10.23 44.3025 7.38359 42.461 6.92986 40.0816L6.58999 36.6381C6.52267 36.2849 6.37168 35.9527 6.14948 35.6689C5.92728 35.3851 5.64025 35.1578 5.31207 35.0057L3.25923 34.3059C0.171486 32.8792 -0.861727 29.4222 0.91071 26.5369L2.06628 24.9484C2.29357 24.5781 2.40909 24.151 2.39915 23.7176C2.38921 23.2842 2.25422 22.8627 2.0102 22.5032L1.14862 21.289C-1.29506 17.8387 0.394103 13.9804 4.01375 12.8235L4.81245 12.5689C5.69272 12.2873 6.5458 11.5605 6.61718 10.6448L6.79731 8.42219C7.0862 4.81342 10.4034 2.74259 13.8939 3.79655L15.0239 4.13719C16.1115 4.55878 16.9646 4.19959 17.5594 3.55709L18.7812 2.01072L18.7778 2.00903Z" fill="url(#paint5_radial_177_180)"/>
<path d="M18.7778 2.00903C21.3813 -0.89654 24.9193 -0.432796 27.1829 2.00903L28.5628 3.59588C29.042 4.11358 29.7336 4.38003 30.4372 4.32101L32.8911 3.59588C36.2371 2.88424 39.2773 5.36148 39.2773 9.20803V10.6583C39.3486 11.4492 40.0454 11.9854 40.7642 12.3345L42.9819 13.2536C46.1886 14.8084 46.9924 18.4981 44.6541 21.5925L43.9913 22.4627C43.3965 23.2603 43.5172 24.3092 44.1103 25.1102L44.773 26.0327C47.1895 28.9838 45.8266 33.031 42.4143 34.4475L40.5059 35.2384C39.7871 35.5369 39.5033 36.0479 39.3707 36.8101L39.2382 39.2856C38.7726 42.6853 35.7307 44.2199 33.2904 43.8776L30.3828 43.1069C29.6844 43.0091 28.816 43.2384 28.3504 43.9636L27.3018 45.3868C24.7001 48.2975 21.1875 47.8135 19.4168 46.112L17.4812 43.7848C16.9748 43.2991 16.3358 42.8826 15.5711 43.1693L12.6448 43.9619C10.23 44.3025 7.38359 42.461 6.92986 40.0816L6.58999 36.6381C6.52267 36.2849 6.37168 35.9527 6.14948 35.6689C5.92728 35.3851 5.64025 35.1578 5.31207 35.0057L3.25923 34.3059C0.171486 32.8792 -0.861727 29.4222 0.91071 26.5369L2.06628 24.9484C2.29357 24.5781 2.40909 24.151 2.39915 23.7176C2.38921 23.2842 2.25422 22.8627 2.0102 22.5032L1.14862 21.289C-1.29506 17.8387 0.394103 13.9804 4.01375 12.8235L4.81245 12.5689C5.69272 12.2873 6.5458 11.5605 6.61718 10.6448L6.79731 8.42219C7.0862 4.81342 10.4034 2.74259 13.8939 3.79655L15.0239 4.13719C16.1115 4.55878 16.9646 4.19959 17.5594 3.55709L18.7812 2.01072L18.7778 2.00903Z" fill="url(#paint6_radial_177_180)"/>
<path d="M18.7778 2.00903C21.3813 -0.89654 24.9193 -0.432796 27.1829 2.00903L28.5628 3.59588C29.042 4.11358 29.7336 4.38003 30.4372 4.32101L32.8911 3.59588C36.2371 2.88424 39.2773 5.36148 39.2773 9.20803V10.6583C39.3486 11.4492 40.0454 11.9854 40.7642 12.3345L42.9819 13.2536C46.1886 14.8084 46.9924 18.4981 44.6541 21.5925L43.9913 22.4627C43.3965 23.2603 43.5172 24.3092 44.1103 25.1102L44.773 26.0327C47.1895 28.9838 45.8266 33.031 42.4143 34.4475L40.5059 35.2384C39.7871 35.5369 39.5033 36.0479 39.3707 36.8101L39.2382 39.2856C38.7726 42.6853 35.7307 44.2199 33.2904 43.8776L30.3828 43.1069C29.6844 43.0091 28.816 43.2384 28.3504 43.9636L27.3018 45.3868C24.7001 48.2975 21.1875 47.8135 19.4168 46.112L17.4812 43.7848C16.9748 43.2991 16.3358 42.8826 15.5711 43.1693L12.6448 43.9619C10.23 44.3025 7.38359 42.461 6.92986 40.0816L6.58999 36.6381C6.52267 36.2849 6.37168 35.9527 6.14948 35.6689C5.92728 35.3851 5.64025 35.1578 5.31207 35.0057L3.25923 34.3059C0.171486 32.8792 -0.861727 29.4222 0.91071 26.5369L2.06628 24.9484C2.29357 24.5781 2.40909 24.151 2.39915 23.7176C2.38921 23.2842 2.25422 22.8627 2.0102 22.5032L1.14862 21.289C-1.29506 17.8387 0.394103 13.9804 4.01375 12.8235L4.81245 12.5689C5.69272 12.2873 6.5458 11.5605 6.61718 10.6448L6.79731 8.42219C7.0862 4.81342 10.4034 2.74259 13.8939 3.79655L15.0239 4.13719C16.1115 4.55878 16.9646 4.19959 17.5594 3.55709L18.7812 2.01072L18.7778 2.00903Z" fill="url(#paint7_radial_177_180)"/>
<path d="M18.7778 2.00903C21.3813 -0.89654 24.9193 -0.432796 27.1829 2.00903L28.5628 3.59588C29.042 4.11358 29.7336 4.38003 30.4372 4.32101L32.8911 3.59588C36.2371 2.88424 39.2773 5.36148 39.2773 9.20803V10.6583C39.3486 11.4492 40.0454 11.9854 40.7642 12.3345L42.9819 13.2536C46.1886 14.8084 46.9924 18.4981 44.6541 21.5925L43.9913 22.4627C43.3965 23.2603 43.5172 24.3092 44.1103 25.1102L44.773 26.0327C47.1895 28.9838 45.8266 33.031 42.4143 34.4475L40.5059 35.2384C39.7871 35.5369 39.5033 36.0479 39.3707 36.8101L39.2382 39.2856C38.7726 42.6853 35.7307 44.2199 33.2904 43.8776L30.3828 43.1069C29.6844 43.0091 28.816 43.2384 28.3504 43.9636L27.3018 45.3868C24.7001 48.2975 21.1875 47.8135 19.4168 46.112L17.4812 43.7848C16.9748 43.2991 16.3358 42.8826 15.5711 43.1693L12.6448 43.9619C10.23 44.3025 7.38359 42.461 6.92986 40.0816L6.58999 36.6381C6.52267 36.2849 6.37168 35.9527 6.14948 35.6689C5.92728 35.3851 5.64025 35.1578 5.31207 35.0057L3.25923 34.3059C0.171486 32.8792 -0.861727 29.4222 0.91071 26.5369L2.06628 24.9484C2.29357 24.5781 2.40909 24.151 2.39915 23.7176C2.38921 23.2842 2.25422 22.8627 2.0102 22.5032L1.14862 21.289C-1.29506 17.8387 0.394103 13.9804 4.01375 12.8235L4.81245 12.5689C5.69272 12.2873 6.5458 11.5605 6.61718 10.6448L6.79731 8.42219C7.0862 4.81342 10.4034 2.74259 13.8939 3.79655L15.0239 4.13719C16.1115 4.55878 16.9646 4.19959 17.5594 3.55709L18.7812 2.01072L18.7778 2.00903Z" fill="url(#paint8_radial_177_180)"/>
<path d="M18.7778 2.00903C21.3813 -0.89654 24.9193 -0.432796 27.1829 2.00903L28.5628 3.59588C29.042 4.11358 29.7336 4.38003 30.4372 4.32101L32.8911 3.59588C36.2371 2.88424 39.2773 5.36148 39.2773 9.20803V10.6583C39.3486 11.4492 40.0454 11.9854 40.7642 12.3345L42.9819 13.2536C46.1886 14.8084 46.9924 18.4981 44.6541 21.5925L43.9913 22.4627C43.3965 23.2603 43.5172 24.3092 44.1103 25.1102L44.773 26.0327C47.1895 28.9838 45.8266 33.031 42.4143 34.4475L40.5059 35.2384C39.7871 35.5369 39.5033 36.0479 39.3707 36.8101L39.2382 39.2856C38.7726 42.6853 35.7307 44.2199 33.2904 43.8776L30.3828 43.1069C29.6844 43.0091 28.816 43.2384 28.3504 43.9636L27.3018 45.3868C24.7001 48.2975 21.1875 47.8135 19.4168 46.112L17.4812 43.7848C16.9748 43.2991 16.3358 42.8826 15.5711 43.1693L12.6448 43.9619C10.23 44.3025 7.38359 42.461 6.92986 40.0816L6.58999 36.6381C6.52267 36.2849 6.37168 35.9527 6.14948 35.6689C5.92728 35.3851 5.64025 35.1578 5.31207 35.0057L3.25923 34.3059C0.171486 32.8792 -0.861727 29.4222 0.91071 26.5369L2.06628 24.9484C2.29357 24.5781 2.40909 24.151 2.39915 23.7176C2.38921 23.2842 2.25422 22.8627 2.0102 22.5032L1.14862 21.289C-1.29506 17.8387 0.394103 13.9804 4.01375 12.8235L4.81245 12.5689C5.69272 12.2873 6.5458 11.5605 6.61718 10.6448L6.79731 8.42219C7.0862 4.81342 10.4034 2.74259 13.8939 3.79655L15.0239 4.13719C16.1115 4.55878 16.9646 4.19959 17.5594 3.55709L18.7812 2.01072L18.7778 2.00903Z" fill="url(#paint9_radial_177_180)"/>
</g>
<g filter="url(#filter1_i_177_180)">
<path d="M22.9991 41.8135C33.0831 41.8135 41.2554 33.7022 41.2554 23.6971C41.2554 13.692 33.0814 5.5807 22.9991 5.5807C12.9167 5.5807 4.7428 13.692 4.7428 23.6971C4.7428 33.7022 12.9167 41.8135 22.9991 41.8135Z" fill="url(#paint10_radial_177_180)"/>
</g>
<defs>
<filter id="filter0_i_177_180" x="0" y="-0.2" width="46.2" height="47.6801" filterUnits="userSpaceOnUse" color-interpolation-filters="sRGB">
<feFlood flood-opacity="0" result="BackgroundImageFix"/>
<feBlend mode="normal" in="SourceGraphic" in2="BackgroundImageFix" result="shape"/>
<feColorMatrix in="SourceAlpha" type="matrix" values="0 0 0 0 0 0 0 0 0 0 0 0 0 0 0 0 0 0 127 0" result="hardAlpha"/>
<feOffset dx="0.2" dy="-0.2"/>
<feGaussianBlur stdDeviation="0.375"/>
<feComposite in2="hardAlpha" operator="arithmetic" k2="-1" k3="1"/>
<feColorMatrix type="matrix" values="0 0 0 0 0.839216 0 0 0 0 0.45098 0 0 0 0 0.211765 0 0 0 1 0"/>
<feBlend mode="normal" in2="shape" result="effect1_innerShadow_177_180"/>
</filter>
<filter id="filter1_i_177_180" x="4.4428" y="5.5807" width="36.8126" height="36.5328" filterUnits="userSpaceOnUse" color-interpolation-filters="sRGB">
<feFlood flood-opacity="0" result="BackgroundImageFix"/>
<feBlend mode="normal" in="SourceGraphic" in2="BackgroundImageFix" result="shape"/>
<feColorMatrix in="SourceAlpha" type="matrix" values="0 0 0 0 0 0 0 0 0 0 0 0 0 0 0 0 0 0 127 0" result="hardAlpha"/>
<feOffset dx="-0.3" dy="0.3"/>
<feGaussianBlur stdDeviation="0.15"/>
<feComposite in2="hardAlpha" operator="arithmetic" k2="-1" k3="1"/>
<feColorMatrix type="matrix" values="0 0 0 0 0.921569 0 0 0 0 0.47451 0 0 0 0 0.133333 0 0 0 1 0"/>
<feBlend mode="normal" in2="shape" result="effect1_innerShadow_177_180"/>
</filter>
<linearGradient id="paint0_linear_177_180" x1="37.1786" y1="7.97362" x2="11.3414" y2="41.192" gradientUnits="userSpaceOnUse">
<stop stop-color="#FC8B23"/>
<stop offset="1" stop-color="#E67639"/>
</linearGradient>
<radialGradient id="paint1_radial_177_180" cx="0" cy="0" r="1" gradientUnits="userSpaceOnUse" gradientTransform="translate(27.3904 2.18984) rotate(138.374) scale(6.39944 5.64135)">
<stop offset="0.3" stop-color="#FFA13A"/>
<stop offset="1" stop-color="#FFA13A" stop-opacity="0"/>
</radialGradient>
<radialGradient id="paint2_radial_177_180" cx="0" cy="0" r="1" gradientUnits="userSpaceOnUse" gradientTransform="translate(10.6855 0.177661) rotate(67.6559) scale(10.1413 8.99698)">
<stop offset="0.3" stop-color="#FF942A"/>
<stop offset="1" stop-color="#FF942A" stop-opacity="0"/>
</radialGradient>
<radialGradient id="paint3_radial_177_180" cx="0" cy="0" r="1" gradientUnits="userSpaceOnUse" gradientTransform="translate(38.0996 9.6313) rotate(-164.856) scale(4.06806 5.5955)">
<stop offset="0.3" stop-color="#FFA13D"/>
<stop offset="1" stop-color="#FFA13D" stop-opacity="0"/>
</radialGradient>
<radialGradient id="paint4_radial_177_180" cx="0" cy="0" r="1" gradientUnits="userSpaceOnUse" gradientTransform="translate(46.3109 15.5099) rotate(154.367) scale(7.2062 5.29686)">
<stop offset="0.3" stop-color="#FFA13D"/>
<stop offset="1" stop-color="#FFA13D" stop-opacity="0"/>
</radialGradient>
<radialGradient id="paint5_radial_177_180" cx="0" cy="0" r="1" gradientUnits="userSpaceOnUse" gradientTransform="translate(47.8829 27.6246) rotate(-173.429) scale(8.04923 4.50219)">
<stop offset="0.3" stop-color="#FFA13D"/>
<stop offset="1" stop-color="#FFA13D" stop-opacity="0"/>
</radialGradient>
<radialGradient id="paint6_radial_177_180" cx="0" cy="0" r="1" gradientUnits="userSpaceOnUse" gradientTransform="translate(40.6704 36.9062) rotate(-43.7438) scale(7.27514 7.00659)">
<stop stop-color="#E0762A"/>
<stop offset="1" stop-color="#E0762A" stop-opacity="0"/>
</radialGradient>
<radialGradient id="paint7_radial_177_180" cx="0" cy="0" r="1" gradientUnits="userSpaceOnUse" gradientTransform="translate(6.8296 35.2047) rotate(-127.96) scale(5.57133 5.37751)">
<stop stop-color="#E0762A"/>
<stop offset="1" stop-color="#E0762A" stop-opacity="0"/>
</radialGradient>
<radialGradient id="paint8_radial_177_180" cx="0" cy="0" r="1" gradientUnits="userSpaceOnUse" gradientTransform="translate(-0.810746 16.4306) rotate(25.1078) scale(5.67694 6.82782)">
<stop stop-color="#F0851D"/>
<stop offset="1" stop-color="#F0851D" stop-opacity="0"/>
</radialGradient>
<radialGradient id="paint9_radial_177_180" cx="0" cy="0" r="1" gradientUnits="userSpaceOnUse" gradientTransform="translate(33.1239 44.9505) rotate(-142.7) scale(6.60916 6.22261)">
<stop offset="0.337" stop-color="#E3745B"/>
<stop offset="1" stop-color="#E3745B" stop-opacity="0"/>
</radialGradient>
<radialGradient id="paint10_radial_177_180" cx="0" cy="0" r="1" gradientUnits="userSpaceOnUse" gradientTransform="translate(33.3615 13.2015) rotate(117.921) scale(32.3813 40.1617)">
<stop offset="0.172" stop-color="#FFD13D"/>
<stop offset="1" stop-color="#D89A29"/>
</radialGradient>
</defs>
</svg>
