<svg width="55" height="48" viewBox="0 0 55 48" fill="none" xmlns="http://www.w3.org/2000/svg">
<g clip-path="url(#clip0_131_333)">
<path d="M13.2511 1.656C14.9011 -0.234 17.1443 0.0659998 18.5782 1.656L19.4543 2.688C19.6038 2.85386 19.7887 2.98264 19.9947 3.06446C20.2007 3.14627 20.4223 3.17896 20.6427 3.16L22.1984 2.688C24.3198 2.226 26.2448 3.836 26.2448 6.338V7.28C26.29 7.796 26.732 8.144 27.1877 8.37L28.5941 8.97C30.6271 9.98 31.1359 12.38 29.6548 14.394L29.2325 14.958C28.8553 15.478 28.9339 16.16 29.3111 16.682L29.7295 17.282C31.2616 19.202 30.3973 21.834 28.2346 22.754L27.0246 23.268C26.5689 23.462 26.3902 23.796 26.3057 24.29L26.2212 25.902C26.1696 26.3517 26.0306 26.7864 25.8124 27.1808C25.5941 27.5753 25.3009 27.9215 24.9499 28.1994C24.5989 28.4773 24.197 28.6814 23.7678 28.7996C23.3386 28.9178 22.8906 28.9478 22.4498 28.888L20.6073 28.388C20.1634 28.322 19.6134 28.472 19.3187 28.944L18.6548 29.868C17.0048 31.762 14.7793 31.448 13.6557 30.34L12.43 28.828C12.1078 28.51 11.7032 28.24 11.218 28.428L9.36374 28.944C7.83159 29.164 6.02838 27.964 5.73963 26.418L5.52552 24.178C5.48249 23.9485 5.38649 23.7327 5.24544 23.5484C5.10439 23.3641 4.92233 23.2166 4.71427 23.118L3.41392 22.662C1.45552 21.734 0.801416 19.486 1.92499 17.61L2.65767 16.576C2.80211 16.335 2.87557 16.0569 2.8693 15.7747C2.86303 15.4925 2.7773 15.2181 2.62231 14.984L2.07427 14.196C0.526416 11.95 1.59695 9.442 3.89124 8.69L4.39802 8.524C4.95588 8.34 5.49606 7.868 5.5432 7.272L5.65517 5.826C5.83784 3.48 7.94159 2.132 10.1534 2.818L10.8703 3.038C11.1419 3.16189 11.4457 3.19221 11.7357 3.12435C12.0257 3.05649 12.286 2.89416 12.4771 2.662L13.2511 1.656Z" fill="url(#paint0_linear_131_333)"/>
<path d="M13.2511 1.656C14.9011 -0.234 17.1443 0.0659998 18.5782 1.656L19.4543 2.688C19.6038 2.85386 19.7887 2.98264 19.9947 3.06446C20.2007 3.14627 20.4223 3.17896 20.6427 3.16L22.1984 2.688C24.3198 2.226 26.2448 3.836 26.2448 6.338V7.28C26.29 7.796 26.732 8.144 27.1877 8.37L28.5941 8.97C30.6271 9.98 31.1359 12.38 29.6548 14.394L29.2325 14.958C28.8553 15.478 28.9339 16.16 29.3111 16.682L29.7295 17.282C31.2616 19.202 30.3973 21.834 28.2346 22.754L27.0246 23.268C26.5689 23.462 26.3902 23.796 26.3057 24.29L26.2212 25.902C26.1696 26.3517 26.0306 26.7864 25.8124 27.1808C25.5941 27.5753 25.3009 27.9215 24.9499 28.1994C24.5989 28.4773 24.197 28.6814 23.7678 28.7996C23.3386 28.9178 22.8906 28.9478 22.4498 28.888L20.6073 28.388C20.1634 28.322 19.6134 28.472 19.3187 28.944L18.6548 29.868C17.0048 31.762 14.7793 31.448 13.6557 30.34L12.43 28.828C12.1078 28.51 11.7032 28.24 11.218 28.428L9.36374 28.944C7.83159 29.164 6.02838 27.964 5.73963 26.418L5.52552 24.178C5.48249 23.9485 5.38649 23.7327 5.24544 23.5484C5.10439 23.3641 4.92233 23.2166 4.71427 23.118L3.41392 22.662C1.45552 21.734 0.801416 19.486 1.92499 17.61L2.65767 16.576C2.80211 16.335 2.87557 16.0569 2.8693 15.7747C2.86303 15.4925 2.7773 15.2181 2.62231 14.984L2.07427 14.196C0.526416 11.95 1.59695 9.442 3.89124 8.69L4.39802 8.524C4.95588 8.34 5.49606 7.868 5.5432 7.272L5.65517 5.826C5.83784 3.48 7.94159 2.132 10.1534 2.818L10.8703 3.038C11.1419 3.16189 11.4457 3.19221 11.7357 3.12435C12.0257 3.05649 12.286 2.89416 12.4771 2.662L13.2511 1.656Z" fill="url(#paint1_radial_131_333)"/>
<path d="M13.2511 1.656C14.9011 -0.234 17.1443 0.0659998 18.5782 1.656L19.4543 2.688C19.6038 2.85386 19.7887 2.98264 19.9947 3.06446C20.2007 3.14627 20.4223 3.17896 20.6427 3.16L22.1984 2.688C24.3198 2.226 26.2448 3.836 26.2448 6.338V7.28C26.29 7.796 26.732 8.144 27.1877 8.37L28.5941 8.97C30.6271 9.98 31.1359 12.38 29.6548 14.394L29.2325 14.958C28.8553 15.478 28.9339 16.16 29.3111 16.682L29.7295 17.282C31.2616 19.202 30.3973 21.834 28.2346 22.754L27.0246 23.268C26.5689 23.462 26.3902 23.796 26.3057 24.29L26.2212 25.902C26.1696 26.3517 26.0306 26.7864 25.8124 27.1808C25.5941 27.5753 25.3009 27.9215 24.9499 28.1994C24.5989 28.4773 24.197 28.6814 23.7678 28.7996C23.3386 28.9178 22.8906 28.9478 22.4498 28.888L20.6073 28.388C20.1634 28.322 19.6134 28.472 19.3187 28.944L18.6548 29.868C17.0048 31.762 14.7793 31.448 13.6557 30.34L12.43 28.828C12.1078 28.51 11.7032 28.24 11.218 28.428L9.36374 28.944C7.83159 29.164 6.02838 27.964 5.73963 26.418L5.52552 24.178C5.48249 23.9485 5.38649 23.7327 5.24544 23.5484C5.10439 23.3641 4.92233 23.2166 4.71427 23.118L3.41392 22.662C1.45552 21.734 0.801416 19.486 1.92499 17.61L2.65767 16.576C2.80211 16.335 2.87557 16.0569 2.8693 15.7747C2.86303 15.4925 2.7773 15.2181 2.62231 14.984L2.07427 14.196C0.526416 11.95 1.59695 9.442 3.89124 8.69L4.39802 8.524C4.95588 8.34 5.49606 7.868 5.5432 7.272L5.65517 5.826C5.83784 3.48 7.94159 2.132 10.1534 2.818L10.8703 3.038C11.1419 3.16189 11.4457 3.19221 11.7357 3.12435C12.0257 3.05649 12.286 2.89416 12.4771 2.662L13.2511 1.656Z" fill="url(#paint2_radial_131_333)"/>
<path d="M13.2511 1.656C14.9011 -0.234 17.1443 0.0659998 18.5782 1.656L19.4543 2.688C19.6038 2.85386 19.7887 2.98264 19.9947 3.06446C20.2007 3.14627 20.4223 3.17896 20.6427 3.16L22.1984 2.688C24.3198 2.226 26.2448 3.836 26.2448 6.338V7.28C26.29 7.796 26.732 8.144 27.1877 8.37L28.5941 8.97C30.6271 9.98 31.1359 12.38 29.6548 14.394L29.2325 14.958C28.8553 15.478 28.9339 16.16 29.3111 16.682L29.7295 17.282C31.2616 19.202 30.3973 21.834 28.2346 22.754L27.0246 23.268C26.5689 23.462 26.3902 23.796 26.3057 24.29L26.2212 25.902C26.1696 26.3517 26.0306 26.7864 25.8124 27.1808C25.5941 27.5753 25.3009 27.9215 24.9499 28.1994C24.5989 28.4773 24.197 28.6814 23.7678 28.7996C23.3386 28.9178 22.8906 28.9478 22.4498 28.888L20.6073 28.388C20.1634 28.322 19.6134 28.472 19.3187 28.944L18.6548 29.868C17.0048 31.762 14.7793 31.448 13.6557 30.34L12.43 28.828C12.1078 28.51 11.7032 28.24 11.218 28.428L9.36374 28.944C7.83159 29.164 6.02838 27.964 5.73963 26.418L5.52552 24.178C5.48249 23.9485 5.38649 23.7327 5.24544 23.5484C5.10439 23.3641 4.92233 23.2166 4.71427 23.118L3.41392 22.662C1.45552 21.734 0.801416 19.486 1.92499 17.61L2.65767 16.576C2.80211 16.335 2.87557 16.0569 2.8693 15.7747C2.86303 15.4925 2.7773 15.2181 2.62231 14.984L2.07427 14.196C0.526416 11.95 1.59695 9.442 3.89124 8.69L4.39802 8.524C4.95588 8.34 5.49606 7.868 5.5432 7.272L5.65517 5.826C5.83784 3.48 7.94159 2.132 10.1534 2.818L10.8703 3.038C11.1419 3.16189 11.4457 3.19221 11.7357 3.12435C12.0257 3.05649 12.286 2.89416 12.4771 2.662L13.2511 1.656Z" fill="url(#paint3_radial_131_333)"/>
<path d="M13.2511 1.656C14.9011 -0.234 17.1443 0.0659998 18.5782 1.656L19.4543 2.688C19.6038 2.85386 19.7887 2.98264 19.9947 3.06446C20.2007 3.14627 20.4223 3.17896 20.6427 3.16L22.1984 2.688C24.3198 2.226 26.2448 3.836 26.2448 6.338V7.28C26.29 7.796 26.732 8.144 27.1877 8.37L28.5941 8.97C30.6271 9.98 31.1359 12.38 29.6548 14.394L29.2325 14.958C28.8553 15.478 28.9339 16.16 29.3111 16.682L29.7295 17.282C31.2616 19.202 30.3973 21.834 28.2346 22.754L27.0246 23.268C26.5689 23.462 26.3902 23.796 26.3057 24.29L26.2212 25.902C26.1696 26.3517 26.0306 26.7864 25.8124 27.1808C25.5941 27.5753 25.3009 27.9215 24.9499 28.1994C24.5989 28.4773 24.197 28.6814 23.7678 28.7996C23.3386 28.9178 22.8906 28.9478 22.4498 28.888L20.6073 28.388C20.1634 28.322 19.6134 28.472 19.3187 28.944L18.6548 29.868C17.0048 31.762 14.7793 31.448 13.6557 30.34L12.43 28.828C12.1078 28.51 11.7032 28.24 11.218 28.428L9.36374 28.944C7.83159 29.164 6.02838 27.964 5.73963 26.418L5.52552 24.178C5.48249 23.9485 5.38649 23.7327 5.24544 23.5484C5.10439 23.3641 4.92233 23.2166 4.71427 23.118L3.41392 22.662C1.45552 21.734 0.801416 19.486 1.92499 17.61L2.65767 16.576C2.80211 16.335 2.87557 16.0569 2.8693 15.7747C2.86303 15.4925 2.7773 15.2181 2.62231 14.984L2.07427 14.196C0.526416 11.95 1.59695 9.442 3.89124 8.69L4.39802 8.524C4.95588 8.34 5.49606 7.868 5.5432 7.272L5.65517 5.826C5.83784 3.48 7.94159 2.132 10.1534 2.818L10.8703 3.038C11.1419 3.16189 11.4457 3.19221 11.7357 3.12435C12.0257 3.05649 12.286 2.89416 12.4771 2.662L13.2511 1.656Z" fill="url(#paint4_radial_131_333)"/>
<path d="M13.2511 1.656C14.9011 -0.234 17.1443 0.0659998 18.5782 1.656L19.4543 2.688C19.6038 2.85386 19.7887 2.98264 19.9947 3.06446C20.2007 3.14627 20.4223 3.17896 20.6427 3.16L22.1984 2.688C24.3198 2.226 26.2448 3.836 26.2448 6.338V7.28C26.29 7.796 26.732 8.144 27.1877 8.37L28.5941 8.97C30.6271 9.98 31.1359 12.38 29.6548 14.394L29.2325 14.958C28.8553 15.478 28.9339 16.16 29.3111 16.682L29.7295 17.282C31.2616 19.202 30.3973 21.834 28.2346 22.754L27.0246 23.268C26.5689 23.462 26.3902 23.796 26.3057 24.29L26.2212 25.902C26.1696 26.3517 26.0306 26.7864 25.8124 27.1808C25.5941 27.5753 25.3009 27.9215 24.9499 28.1994C24.5989 28.4773 24.197 28.6814 23.7678 28.7996C23.3386 28.9178 22.8906 28.9478 22.4498 28.888L20.6073 28.388C20.1634 28.322 19.6134 28.472 19.3187 28.944L18.6548 29.868C17.0048 31.762 14.7793 31.448 13.6557 30.34L12.43 28.828C12.1078 28.51 11.7032 28.24 11.218 28.428L9.36374 28.944C7.83159 29.164 6.02838 27.964 5.73963 26.418L5.52552 24.178C5.48249 23.9485 5.38649 23.7327 5.24544 23.5484C5.10439 23.3641 4.92233 23.2166 4.71427 23.118L3.41392 22.662C1.45552 21.734 0.801416 19.486 1.92499 17.61L2.65767 16.576C2.80211 16.335 2.87557 16.0569 2.8693 15.7747C2.86303 15.4925 2.7773 15.2181 2.62231 14.984L2.07427 14.196C0.526416 11.95 1.59695 9.442 3.89124 8.69L4.39802 8.524C4.95588 8.34 5.49606 7.868 5.5432 7.272L5.65517 5.826C5.83784 3.48 7.94159 2.132 10.1534 2.818L10.8703 3.038C11.1419 3.16189 11.4457 3.19221 11.7357 3.12435C12.0257 3.05649 12.286 2.89416 12.4771 2.662L13.2511 1.656Z" fill="url(#paint5_radial_131_333)"/>
<path d="M13.2511 1.656C14.9011 -0.234 17.1443 0.0659998 18.5782 1.656L19.4543 2.688C19.6038 2.85386 19.7887 2.98264 19.9947 3.06446C20.2007 3.14627 20.4223 3.17896 20.6427 3.16L22.1984 2.688C24.3198 2.226 26.2448 3.836 26.2448 6.338V7.28C26.29 7.796 26.732 8.144 27.1877 8.37L28.5941 8.97C30.6271 9.98 31.1359 12.38 29.6548 14.394L29.2325 14.958C28.8553 15.478 28.9339 16.16 29.3111 16.682L29.7295 17.282C31.2616 19.202 30.3973 21.834 28.2346 22.754L27.0246 23.268C26.5689 23.462 26.3902 23.796 26.3057 24.29L26.2212 25.902C26.1696 26.3517 26.0306 26.7864 25.8124 27.1808C25.5941 27.5753 25.3009 27.9215 24.9499 28.1994C24.5989 28.4773 24.197 28.6814 23.7678 28.7996C23.3386 28.9178 22.8906 28.9478 22.4498 28.888L20.6073 28.388C20.1634 28.322 19.6134 28.472 19.3187 28.944L18.6548 29.868C17.0048 31.762 14.7793 31.448 13.6557 30.34L12.43 28.828C12.1078 28.51 11.7032 28.24 11.218 28.428L9.36374 28.944C7.83159 29.164 6.02838 27.964 5.73963 26.418L5.52552 24.178C5.48249 23.9485 5.38649 23.7327 5.24544 23.5484C5.10439 23.3641 4.92233 23.2166 4.71427 23.118L3.41392 22.662C1.45552 21.734 0.801416 19.486 1.92499 17.61L2.65767 16.576C2.80211 16.335 2.87557 16.0569 2.8693 15.7747C2.86303 15.4925 2.7773 15.2181 2.62231 14.984L2.07427 14.196C0.526416 11.95 1.59695 9.442 3.89124 8.69L4.39802 8.524C4.95588 8.34 5.49606 7.868 5.5432 7.272L5.65517 5.826C5.83784 3.48 7.94159 2.132 10.1534 2.818L10.8703 3.038C11.1419 3.16189 11.4457 3.19221 11.7357 3.12435C12.0257 3.05649 12.286 2.89416 12.4771 2.662L13.2511 1.656Z" fill="url(#paint6_radial_131_333)"/>
<path d="M13.2511 1.656C14.9011 -0.234 17.1443 0.0659998 18.5782 1.656L19.4543 2.688C19.6038 2.85386 19.7887 2.98264 19.9947 3.06446C20.2007 3.14627 20.4223 3.17896 20.6427 3.16L22.1984 2.688C24.3198 2.226 26.2448 3.836 26.2448 6.338V7.28C26.29 7.796 26.732 8.144 27.1877 8.37L28.5941 8.97C30.6271 9.98 31.1359 12.38 29.6548 14.394L29.2325 14.958C28.8553 15.478 28.9339 16.16 29.3111 16.682L29.7295 17.282C31.2616 19.202 30.3973 21.834 28.2346 22.754L27.0246 23.268C26.5689 23.462 26.3902 23.796 26.3057 24.29L26.2212 25.902C26.1696 26.3517 26.0306 26.7864 25.8124 27.1808C25.5941 27.5753 25.3009 27.9215 24.9499 28.1994C24.5989 28.4773 24.197 28.6814 23.7678 28.7996C23.3386 28.9178 22.8906 28.9478 22.4498 28.888L20.6073 28.388C20.1634 28.322 19.6134 28.472 19.3187 28.944L18.6548 29.868C17.0048 31.762 14.7793 31.448 13.6557 30.34L12.43 28.828C12.1078 28.51 11.7032 28.24 11.218 28.428L9.36374 28.944C7.83159 29.164 6.02838 27.964 5.73963 26.418L5.52552 24.178C5.48249 23.9485 5.38649 23.7327 5.24544 23.5484C5.10439 23.3641 4.92233 23.2166 4.71427 23.118L3.41392 22.662C1.45552 21.734 0.801416 19.486 1.92499 17.61L2.65767 16.576C2.80211 16.335 2.87557 16.0569 2.8693 15.7747C2.86303 15.4925 2.7773 15.2181 2.62231 14.984L2.07427 14.196C0.526416 11.95 1.59695 9.442 3.89124 8.69L4.39802 8.524C4.95588 8.34 5.49606 7.868 5.5432 7.272L5.65517 5.826C5.83784 3.48 7.94159 2.132 10.1534 2.818L10.8703 3.038C11.1419 3.16189 11.4457 3.19221 11.7357 3.12435C12.0257 3.05649 12.286 2.89416 12.4771 2.662L13.2511 1.656Z" fill="url(#paint7_radial_131_333)"/>
<path d="M13.2511 1.656C14.9011 -0.234 17.1443 0.0659998 18.5782 1.656L19.4543 2.688C19.6038 2.85386 19.7887 2.98264 19.9947 3.06446C20.2007 3.14627 20.4223 3.17896 20.6427 3.16L22.1984 2.688C24.3198 2.226 26.2448 3.836 26.2448 6.338V7.28C26.29 7.796 26.732 8.144 27.1877 8.37L28.5941 8.97C30.6271 9.98 31.1359 12.38 29.6548 14.394L29.2325 14.958C28.8553 15.478 28.9339 16.16 29.3111 16.682L29.7295 17.282C31.2616 19.202 30.3973 21.834 28.2346 22.754L27.0246 23.268C26.5689 23.462 26.3902 23.796 26.3057 24.29L26.2212 25.902C26.1696 26.3517 26.0306 26.7864 25.8124 27.1808C25.5941 27.5753 25.3009 27.9215 24.9499 28.1994C24.5989 28.4773 24.197 28.6814 23.7678 28.7996C23.3386 28.9178 22.8906 28.9478 22.4498 28.888L20.6073 28.388C20.1634 28.322 19.6134 28.472 19.3187 28.944L18.6548 29.868C17.0048 31.762 14.7793 31.448 13.6557 30.34L12.43 28.828C12.1078 28.51 11.7032 28.24 11.218 28.428L9.36374 28.944C7.83159 29.164 6.02838 27.964 5.73963 26.418L5.52552 24.178C5.48249 23.9485 5.38649 23.7327 5.24544 23.5484C5.10439 23.3641 4.92233 23.2166 4.71427 23.118L3.41392 22.662C1.45552 21.734 0.801416 19.486 1.92499 17.61L2.65767 16.576C2.80211 16.335 2.87557 16.0569 2.8693 15.7747C2.86303 15.4925 2.7773 15.2181 2.62231 14.984L2.07427 14.196C0.526416 11.95 1.59695 9.442 3.89124 8.69L4.39802 8.524C4.95588 8.34 5.49606 7.868 5.5432 7.272L5.65517 5.826C5.83784 3.48 7.94159 2.132 10.1534 2.818L10.8703 3.038C11.1419 3.16189 11.4457 3.19221 11.7357 3.12435C12.0257 3.05649 12.286 2.89416 12.4771 2.662L13.2511 1.656Z" fill="url(#paint8_radial_131_333)"/>
<path d="M13.2511 1.656C14.9011 -0.234 17.1443 0.0659998 18.5782 1.656L19.4543 2.688C19.6038 2.85386 19.7887 2.98264 19.9947 3.06446C20.2007 3.14627 20.4223 3.17896 20.6427 3.16L22.1984 2.688C24.3198 2.226 26.2448 3.836 26.2448 6.338V7.28C26.29 7.796 26.732 8.144 27.1877 8.37L28.5941 8.97C30.6271 9.98 31.1359 12.38 29.6548 14.394L29.2325 14.958C28.8553 15.478 28.9339 16.16 29.3111 16.682L29.7295 17.282C31.2616 19.202 30.3973 21.834 28.2346 22.754L27.0246 23.268C26.5689 23.462 26.3902 23.796 26.3057 24.29L26.2212 25.902C26.1696 26.3517 26.0306 26.7864 25.8124 27.1808C25.5941 27.5753 25.3009 27.9215 24.9499 28.1994C24.5989 28.4773 24.197 28.6814 23.7678 28.7996C23.3386 28.9178 22.8906 28.9478 22.4498 28.888L20.6073 28.388C20.1634 28.322 19.6134 28.472 19.3187 28.944L18.6548 29.868C17.0048 31.762 14.7793 31.448 13.6557 30.34L12.43 28.828C12.1078 28.51 11.7032 28.24 11.218 28.428L9.36374 28.944C7.83159 29.164 6.02838 27.964 5.73963 26.418L5.52552 24.178C5.48249 23.9485 5.38649 23.7327 5.24544 23.5484C5.10439 23.3641 4.92233 23.2166 4.71427 23.118L3.41392 22.662C1.45552 21.734 0.801416 19.486 1.92499 17.61L2.65767 16.576C2.80211 16.335 2.87557 16.0569 2.8693 15.7747C2.86303 15.4925 2.7773 15.2181 2.62231 14.984L2.07427 14.196C0.526416 11.95 1.59695 9.442 3.89124 8.69L4.39802 8.524C4.95588 8.34 5.49606 7.868 5.5432 7.272L5.65517 5.826C5.83784 3.48 7.94159 2.132 10.1534 2.818L10.8703 3.038C11.1419 3.16189 11.4457 3.19221 11.7357 3.12435C12.0257 3.05649 12.286 2.89416 12.4771 2.662L13.2511 1.656Z" fill="url(#paint9_radial_131_333)"/>
<g filter="url(#filter0_i_131_333)">
<path d="M15.9264 27.546C17.4463 27.546 18.9513 27.2412 20.3554 26.649C21.7596 26.0568 23.0355 25.1888 24.1102 24.0945C25.1849 23.0003 26.0374 21.7012 26.619 20.2715C27.2006 18.8418 27.5 17.3095 27.5 15.762C27.5 14.2145 27.2006 12.6822 26.619 11.2525C26.0374 9.82276 25.1849 8.5237 24.1102 7.42945C23.0355 6.33521 21.7596 5.4672 20.3554 4.875C18.9513 4.2828 17.4463 3.978 15.9264 3.978C12.8569 3.978 9.91313 5.21952 7.74266 7.42945C5.5722 9.63938 4.35284 12.6367 4.35284 15.762C4.35284 18.8873 5.5722 21.8846 7.74266 24.0945C9.91313 26.3045 12.8569 27.546 15.9264 27.546Z" fill="url(#paint10_radial_131_333)"/>
<path d="M15.9264 27.546C17.4463 27.546 18.9513 27.2412 20.3554 26.649C21.7596 26.0568 23.0355 25.1888 24.1102 24.0945C25.1849 23.0003 26.0374 21.7012 26.619 20.2715C27.2006 18.8418 27.5 17.3095 27.5 15.762C27.5 14.2145 27.2006 12.6822 26.619 11.2525C26.0374 9.82276 25.1849 8.5237 24.1102 7.42945C23.0355 6.33521 21.7596 5.4672 20.3554 4.875C18.9513 4.2828 17.4463 3.978 15.9264 3.978C12.8569 3.978 9.91313 5.21952 7.74266 7.42945C5.5722 9.63938 4.35284 12.6367 4.35284 15.762C4.35284 18.8873 5.5722 21.8846 7.74266 24.0945C9.91313 26.3045 12.8569 27.546 15.9264 27.546Z" fill="url(#paint11_radial_131_333)"/>
<path d="M15.9264 27.546C17.4463 27.546 18.9513 27.2412 20.3554 26.649C21.7596 26.0568 23.0355 25.1888 24.1102 24.0945C25.1849 23.0003 26.0374 21.7012 26.619 20.2715C27.2006 18.8418 27.5 17.3095 27.5 15.762C27.5 14.2145 27.2006 12.6822 26.619 11.2525C26.0374 9.82276 25.1849 8.5237 24.1102 7.42945C23.0355 6.33521 21.7596 5.4672 20.3554 4.875C18.9513 4.2828 17.4463 3.978 15.9264 3.978C12.8569 3.978 9.91313 5.21952 7.74266 7.42945C5.5722 9.63938 4.35284 12.6367 4.35284 15.762C4.35284 18.8873 5.5722 21.8846 7.74266 24.0945C9.91313 26.3045 12.8569 27.546 15.9264 27.546Z" fill="url(#paint12_radial_131_333)"/>
</g>
<path d="M24.5221 36.776C26.4201 36.776 28.2996 36.3953 30.0531 35.6558C31.8067 34.9163 33.4 33.8323 34.7421 32.4658C36.0842 31.0993 37.1488 29.477 37.8752 27.6916C38.6015 25.9061 38.9753 23.9925 38.9753 22.06C38.9753 20.1275 38.6015 18.2139 37.8752 16.4284C37.1488 14.643 36.0842 13.0207 34.7421 11.6542C33.4 10.2877 31.8067 9.20373 30.0531 8.46419C28.2996 7.72464 26.4201 7.344 24.5221 7.344C20.6889 7.344 17.0127 8.89443 14.3022 11.6542C11.5917 14.414 10.0689 18.1571 10.0689 22.06C10.0689 25.9629 11.5917 29.706 14.3022 32.4658C17.0127 35.2256 20.6889 36.776 24.5221 36.776Z" fill="url(#paint13_radial_131_333)"/>
<path d="M24.5221 36.776C26.4201 36.776 28.2996 36.3953 30.0531 35.6558C31.8067 34.9163 33.4 33.8323 34.7421 32.4658C36.0842 31.0993 37.1488 29.477 37.8752 27.6916C38.6015 25.9061 38.9753 23.9925 38.9753 22.06C38.9753 20.1275 38.6015 18.2139 37.8752 16.4284C37.1488 14.643 36.0842 13.0207 34.7421 11.6542C33.4 10.2877 31.8067 9.20373 30.0531 8.46419C28.2996 7.72464 26.4201 7.344 24.5221 7.344C20.6889 7.344 17.0127 8.89443 14.3022 11.6542C11.5917 14.414 10.0689 18.1571 10.0689 22.06C10.0689 25.9629 11.5917 29.706 14.3022 32.4658C17.0127 35.2256 20.6889 36.776 24.5221 36.776Z" fill="url(#paint14_radial_131_333)"/>
<g filter="url(#filter1_i_131_333)">
<path d="M49.5334 17.32C42.5916 10.43 31.4855 10.548 24.7185 17.618C22.9744 19.4312 21.6309 21.6031 20.7782 23.988C20.7503 24.0634 20.7061 24.1315 20.6488 24.1871C20.5916 24.2428 20.5227 24.2845 20.4474 24.3093C20.3721 24.3341 20.2922 24.3413 20.2138 24.3303C20.1354 24.3194 20.0604 24.2905 19.9944 24.246C19.386 23.8352 18.7416 23.4823 18.0694 23.192C16.1455 22.2931 14.0305 21.901 11.9189 22.052C9.80723 22.2029 7.76676 22.892 5.98508 24.0559C4.2034 25.2197 2.7377 26.821 1.72275 28.7124C0.707793 30.6038 0.176169 32.7247 0.176758 34.88C0.178098 37.7947 1.15035 40.6227 2.93462 42.902C4.1185 44.4892 5.64749 45.7755 7.40163 46.66C9.15576 47.5446 11.0873 48.0032 13.0448 48H37.8596C40.4738 48.0026 43.0507 47.3678 45.3745 46.1486C47.6984 44.9293 49.7017 43.1612 51.2168 40.992C56.5341 33.904 55.9664 23.71 49.5334 17.318V17.32Z" fill="url(#paint15_linear_131_333)"/>
<path d="M49.5334 17.32C42.5916 10.43 31.4855 10.548 24.7185 17.618C22.9744 19.4312 21.6309 21.6031 20.7782 23.988C20.7503 24.0634 20.7061 24.1315 20.6488 24.1871C20.5916 24.2428 20.5227 24.2845 20.4474 24.3093C20.3721 24.3341 20.2922 24.3413 20.2138 24.3303C20.1354 24.3194 20.0604 24.2905 19.9944 24.246C19.386 23.8352 18.7416 23.4823 18.0694 23.192C16.1455 22.2931 14.0305 21.901 11.9189 22.052C9.80723 22.2029 7.76676 22.892 5.98508 24.0559C4.2034 25.2197 2.7377 26.821 1.72275 28.7124C0.707793 30.6038 0.176169 32.7247 0.176758 34.88C0.178098 37.7947 1.15035 40.6227 2.93462 42.902C4.1185 44.4892 5.64749 45.7755 7.40163 46.66C9.15576 47.5446 11.0873 48.0032 13.0448 48H37.8596C40.4738 48.0026 43.0507 47.3678 45.3745 46.1486C47.6984 44.9293 49.7017 43.1612 51.2168 40.992C56.5341 33.904 55.9664 23.71 49.5334 17.318V17.32Z" fill="url(#paint16_linear_131_333)"/>
<path d="M49.5334 17.32C42.5916 10.43 31.4855 10.548 24.7185 17.618C22.9744 19.4312 21.6309 21.6031 20.7782 23.988C20.7503 24.0634 20.7061 24.1315 20.6488 24.1871C20.5916 24.2428 20.5227 24.2845 20.4474 24.3093C20.3721 24.3341 20.2922 24.3413 20.2138 24.3303C20.1354 24.3194 20.0604 24.2905 19.9944 24.246C19.386 23.8352 18.7416 23.4823 18.0694 23.192C16.1455 22.2931 14.0305 21.901 11.9189 22.052C9.80723 22.2029 7.76676 22.892 5.98508 24.0559C4.2034 25.2197 2.7377 26.821 1.72275 28.7124C0.707793 30.6038 0.176169 32.7247 0.176758 34.88C0.178098 37.7947 1.15035 40.6227 2.93462 42.902C4.1185 44.4892 5.64749 45.7755 7.40163 46.66C9.15576 47.5446 11.0873 48.0032 13.0448 48H37.8596C40.4738 48.0026 43.0507 47.3678 45.3745 46.1486C47.6984 44.9293 49.7017 43.1612 51.2168 40.992C56.5341 33.904 55.9664 23.71 49.5334 17.318V17.32Z" fill="url(#paint17_radial_131_333)"/>
</g>
<path d="M49.5334 17.32C42.5916 10.43 31.4855 10.548 24.7185 17.618C22.9744 19.4312 21.6309 21.6031 20.7782 23.988C20.7503 24.0634 20.7061 24.1315 20.6488 24.1871C20.5916 24.2428 20.5227 24.2845 20.4474 24.3093C20.3721 24.3341 20.2922 24.3413 20.2138 24.3303C20.1354 24.3194 20.0604 24.2905 19.9944 24.246C19.386 23.8352 18.7416 23.4823 18.0694 23.192C16.1455 22.2931 14.0305 21.901 11.9189 22.052C9.80723 22.2029 7.76676 22.892 5.98508 24.0559C4.2034 25.2197 2.7377 26.821 1.72275 28.7124C0.707793 30.6038 0.176169 32.7247 0.176758 34.88C0.178098 37.7947 1.15035 40.6227 2.93462 42.902C4.1185 44.4892 5.64749 45.7755 7.40163 46.66C9.15576 47.5446 11.0873 48.0032 13.0448 48H37.8596C40.4738 48.0026 43.0507 47.3678 45.3745 46.1486C47.6984 44.9293 49.7017 43.1612 51.2168 40.992C56.5341 33.904 55.9664 23.71 49.5334 17.318V17.32Z" fill="url(#paint18_radial_131_333)"/>
<path d="M49.5334 17.32C42.5916 10.43 31.4855 10.548 24.7185 17.618C22.9744 19.4312 21.6309 21.6031 20.7782 23.988C20.7503 24.0634 20.7061 24.1315 20.6488 24.1871C20.5916 24.2428 20.5227 24.2845 20.4474 24.3093C20.3721 24.3341 20.2922 24.3413 20.2138 24.3303C20.1354 24.3194 20.0604 24.2905 19.9944 24.246C19.386 23.8352 18.7416 23.4823 18.0694 23.192C16.1455 22.2931 14.0305 21.901 11.9189 22.052C9.80723 22.2029 7.76676 22.892 5.98508 24.0559C4.2034 25.2197 2.7377 26.821 1.72275 28.7124C0.707793 30.6038 0.176169 32.7247 0.176758 34.88C0.178098 37.7947 1.15035 40.6227 2.93462 42.902C4.1185 44.4892 5.64749 45.7755 7.40163 46.66C9.15576 47.5446 11.0873 48.0032 13.0448 48H37.8596C40.4738 48.0026 43.0507 47.3678 45.3745 46.1486C47.6984 44.9293 49.7017 43.1612 51.2168 40.992C56.5341 33.904 55.9664 23.71 49.5334 17.318V17.32Z" fill="url(#paint19_radial_131_333)"/>
<path d="M49.5334 17.32C42.5916 10.43 31.4855 10.548 24.7185 17.618C22.9744 19.4312 21.6309 21.6031 20.7782 23.988C20.7503 24.0634 20.7061 24.1315 20.6488 24.1871C20.5916 24.2428 20.5227 24.2845 20.4474 24.3093C20.3721 24.3341 20.2922 24.3413 20.2138 24.3303C20.1354 24.3194 20.0604 24.2905 19.9944 24.246C19.386 23.8352 18.7416 23.4823 18.0694 23.192C16.1455 22.2931 14.0305 21.901 11.9189 22.052C9.80723 22.2029 7.76676 22.892 5.98508 24.0559C4.2034 25.2197 2.7377 26.821 1.72275 28.7124C0.707793 30.6038 0.176169 32.7247 0.176758 34.88C0.178098 37.7947 1.15035 40.6227 2.93462 42.902C4.1185 44.4892 5.64749 45.7755 7.40163 46.66C9.15576 47.5446 11.0873 48.0032 13.0448 48H37.8596C40.4738 48.0026 43.0507 47.3678 45.3745 46.1486C47.6984 44.9293 49.7017 43.1612 51.2168 40.992C56.5341 33.904 55.9664 23.71 49.5334 17.318V17.32Z" fill="url(#paint20_radial_131_333)"/>
<path d="M49.5334 17.32C42.5916 10.43 31.4855 10.548 24.7185 17.618C22.9744 19.4312 21.6309 21.6031 20.7782 23.988C20.7503 24.0634 20.7061 24.1315 20.6488 24.1871C20.5916 24.2428 20.5227 24.2845 20.4474 24.3093C20.3721 24.3341 20.2922 24.3413 20.2138 24.3303C20.1354 24.3194 20.0604 24.2905 19.9944 24.246C19.386 23.8352 18.7416 23.4823 18.0694 23.192C16.1455 22.2931 14.0305 21.901 11.9189 22.052C9.80723 22.2029 7.76676 22.892 5.98508 24.0559C4.2034 25.2197 2.7377 26.821 1.72275 28.7124C0.707793 30.6038 0.176169 32.7247 0.176758 34.88C0.178098 37.7947 1.15035 40.6227 2.93462 42.902C4.1185 44.4892 5.64749 45.7755 7.40163 46.66C9.15576 47.5446 11.0873 48.0032 13.0448 48H37.8596C40.4738 48.0026 43.0507 47.3678 45.3745 46.1486C47.6984 44.9293 49.7017 43.1612 51.2168 40.992C56.5341 33.904 55.9664 23.71 49.5334 17.318V17.32Z" fill="url(#paint21_radial_131_333)"/>
<g filter="url(#filter2_f_131_333)">
<path d="M25.3235 39.622C24.0925 41.5228 22.5836 43.2211 20.8489 44.658H29.8591C28.1148 43.602 26.1092 40.86 25.3235 39.622Z" fill="#EAE0FF"/>
</g>
</g>
<defs>
<filter id="filter0_i_131_333" x="4.05284" y="3.978" width="23.4472" height="23.868" filterUnits="userSpaceOnUse" color-interpolation-filters="sRGB">
<feFlood flood-opacity="0" result="BackgroundImageFix"/>
<feBlend mode="normal" in="SourceGraphic" in2="BackgroundImageFix" result="shape"/>
<feColorMatrix in="SourceAlpha" type="matrix" values="0 0 0 0 0 0 0 0 0 0 0 0 0 0 0 0 0 0 127 0" result="hardAlpha"/>
<feOffset dx="-0.3" dy="0.3"/>
<feGaussianBlur stdDeviation="0.15"/>
<feComposite in2="hardAlpha" operator="arithmetic" k2="-1" k3="1"/>
<feColorMatrix type="matrix" values="0 0 0 0 0.921569 0 0 0 0 0.47451 0 0 0 0 0.133333 0 0 0 1 0"/>
<feBlend mode="normal" in2="shape" result="effect1_innerShadow_131_333"/>
</filter>
<filter id="filter1_i_131_333" x="0.176758" y="11.2328" width="54.6451" height="36.7672" filterUnits="userSpaceOnUse" color-interpolation-filters="sRGB">
<feFlood flood-opacity="0" result="BackgroundImageFix"/>
<feBlend mode="normal" in="SourceGraphic" in2="BackgroundImageFix" result="shape"/>
<feColorMatrix in="SourceAlpha" type="matrix" values="0 0 0 0 0 0 0 0 0 0 0 0 0 0 0 0 0 0 127 0" result="hardAlpha"/>
<feOffset dy="-1"/>
<feGaussianBlur stdDeviation="1"/>
<feComposite in2="hardAlpha" operator="arithmetic" k2="-1" k3="1"/>
<feColorMatrix type="matrix" values="0 0 0 0 0.815686 0 0 0 0 0.784314 0 0 0 0 0.956863 0 0 0 1 0"/>
<feBlend mode="normal" in2="shape" result="effect1_innerShadow_131_333"/>
</filter>
<filter id="filter2_f_131_333" x="19.3489" y="38.122" width="12.0102" height="8.036" filterUnits="userSpaceOnUse" color-interpolation-filters="sRGB">
<feFlood flood-opacity="0" result="BackgroundImageFix"/>
<feBlend mode="normal" in="SourceGraphic" in2="BackgroundImageFix" result="shape"/>
<feGaussianBlur stdDeviation="0.75" result="effect1_foregroundBlur_131_333"/>
</filter>
<linearGradient id="paint0_linear_131_333" x1="24.915" y1="5.534" x2="8.00893" y2="26.7202" gradientUnits="userSpaceOnUse">
<stop stop-color="#FC8B23"/>
<stop offset="1" stop-color="#E67639"/>
</linearGradient>
<radialGradient id="paint1_radial_131_333" cx="0" cy="0" r="1" gradientUnits="userSpaceOnUse" gradientTransform="translate(18.7118 1.774) rotate(137.641) scale(4.10363 3.62727)">
<stop offset="0.3" stop-color="#FFA13A"/>
<stop offset="1" stop-color="#FFA13A" stop-opacity="0"/>
</radialGradient>
<radialGradient id="paint2_radial_131_333" cx="0" cy="0" r="1" gradientUnits="userSpaceOnUse" gradientTransform="translate(8.12034 0.464) rotate(68.1692) scale(6.5722 5.72408)">
<stop offset="0.3" stop-color="#FF942A"/>
<stop offset="1" stop-color="#FF942A" stop-opacity="0"/>
</radialGradient>
<radialGradient id="paint3_radial_131_333" cx="0" cy="0" r="1" gradientUnits="userSpaceOnUse" gradientTransform="translate(25.4998 6.61261) rotate(-164.481) scale(2.58342 3.63291)">
<stop offset="0.3" stop-color="#FFA13D"/>
<stop offset="1" stop-color="#FFA13D" stop-opacity="0"/>
</radialGradient>
<radialGradient id="paint4_radial_131_333" cx="0" cy="0" r="1" gradientUnits="userSpaceOnUse" gradientTransform="translate(30.7057 10.436) rotate(153.788) scale(4.59062 3.4283)">
<stop offset="0.3" stop-color="#FFA13D"/>
<stop offset="1" stop-color="#FFA13D" stop-opacity="0"/>
</radialGradient>
<radialGradient id="paint5_radial_131_333" cx="0" cy="0" r="1" gradientUnits="userSpaceOnUse" gradientTransform="translate(31.7016 18.316) rotate(-173.26) scale(5.10427 2.92731)">
<stop offset="0.3" stop-color="#FFA13D"/>
<stop offset="1" stop-color="#FFA13D" stop-opacity="0"/>
</radialGradient>
<radialGradient id="paint6_radial_131_333" cx="0" cy="0" r="1" gradientUnits="userSpaceOnUse" gradientTransform="translate(27.1287 24.354) rotate(-44.4799) scale(4.6696 4.50082)">
<stop stop-color="#E0762A"/>
<stop offset="1" stop-color="#E0762A" stop-opacity="0"/>
</radialGradient>
<radialGradient id="paint7_radial_131_333" cx="0" cy="0" r="1" gradientUnits="userSpaceOnUse" gradientTransform="translate(5.67644 23.2486) rotate(-127.248) scale(3.58919 3.44166)">
<stop stop-color="#E0762A"/>
<stop offset="1" stop-color="#E0762A" stop-opacity="0"/>
</radialGradient>
<radialGradient id="paint8_radial_131_333" cx="0" cy="0" r="1" gradientUnits="userSpaceOnUse" gradientTransform="translate(0.834808 11.036) rotate(25.6787) scale(3.61573 4.42001)">
<stop stop-color="#F0851D"/>
<stop offset="1" stop-color="#F0851D" stop-opacity="0"/>
</radialGradient>
<radialGradient id="paint9_radial_131_333" cx="0" cy="0" r="1" gradientUnits="userSpaceOnUse" gradientTransform="translate(22.3446 29.5841) rotate(-141.987) scale(4.23002 4.00868)">
<stop offset="0.337" stop-color="#E3745B"/>
<stop offset="1" stop-color="#E3745B" stop-opacity="0"/>
</radialGradient>
<radialGradient id="paint10_radial_131_333" cx="0" cy="0" r="1" gradientUnits="userSpaceOnUse" gradientTransform="translate(22.495 8.936) rotate(117.316) scale(20.9454 25.6001)">
<stop offset="0.172" stop-color="#FFD13D"/>
<stop offset="1" stop-color="#D89A29"/>
</radialGradient>
<radialGradient id="paint11_radial_131_333" cx="0" cy="0" r="1" gradientUnits="userSpaceOnUse" gradientTransform="translate(11.8132 22.546) rotate(-140.124) scale(7.25696 6.14761)">
<stop offset="0.341" stop-color="#DCA225"/>
<stop offset="1" stop-color="#DCA225" stop-opacity="0"/>
</radialGradient>
<radialGradient id="paint12_radial_131_333" cx="0" cy="0" r="1" gradientUnits="userSpaceOnUse" gradientTransform="translate(25.3786 13.75) rotate(168.092) scale(24.6639 21.1702)">
<stop offset="0.62" stop-color="#DCA225" stop-opacity="0"/>
<stop offset="1" stop-color="#DCA225"/>
</radialGradient>
<radialGradient id="paint13_radial_131_333" cx="0" cy="0" r="1" gradientUnits="userSpaceOnUse" gradientTransform="translate(35.1162 13.3202) rotate(176.597) scale(26.3604 26.8363)">
<stop offset="0.211" stop-color="#F0EFF1"/>
<stop offset="1" stop-color="#C9C7CC"/>
</radialGradient>
<radialGradient id="paint14_radial_131_333" cx="0" cy="0" r="1" gradientUnits="userSpaceOnUse" gradientTransform="translate(23.0155 24.27) rotate(-117.054) scale(10.9796 14.8954)">
<stop stop-color="#CDCDCE"/>
<stop offset="1" stop-color="#CDCDCE" stop-opacity="0"/>
</radialGradient>
<linearGradient id="paint15_linear_131_333" x1="27.5" y1="12.232" x2="27.5" y2="48" gradientUnits="userSpaceOnUse">
<stop stop-color="#C7C6C6"/>
<stop offset="1" stop-color="#D5D4DA"/>
</linearGradient>
<linearGradient id="paint16_linear_131_333" x1="33.0825" y1="46.076" x2="33.0825" y2="31.148" gradientUnits="userSpaceOnUse">
<stop stop-color="#DED7FA"/>
<stop offset="1" stop-color="#DED7FA" stop-opacity="0"/>
</linearGradient>
<radialGradient id="paint17_radial_131_333" cx="0" cy="0" r="1" gradientUnits="userSpaceOnUse" gradientTransform="translate(37.1328 46.272) rotate(-119.391) scale(27.984 29.1045)">
<stop stop-color="#D5CBFF"/>
<stop offset="1" stop-color="#D5CBFF" stop-opacity="0"/>
</radialGradient>
<radialGradient id="paint18_radial_131_333" cx="0" cy="0" r="1" gradientUnits="userSpaceOnUse" gradientTransform="translate(47.7451 24.2571) rotate(143.334) scale(24.645 26.5777)">
<stop offset="0.179" stop-color="#FCFBFE"/>
<stop offset="1" stop-color="#FCFBFE" stop-opacity="0"/>
</radialGradient>
<radialGradient id="paint19_radial_131_333" cx="0" cy="0" r="1" gradientUnits="userSpaceOnUse" gradientTransform="translate(13.1725 32.756) rotate(143.954) scale(13.4372 14.1605)">
<stop stop-color="#FCFBFE"/>
<stop offset="1" stop-color="#FCFBFE" stop-opacity="0"/>
</radialGradient>
<radialGradient id="paint20_radial_131_333" cx="0" cy="0" r="1" gradientUnits="userSpaceOnUse" gradientTransform="translate(45.481 29.056) rotate(166.42) scale(46.6057 37.2979)">
<stop offset="0.815" stop-color="#CECCD7" stop-opacity="0"/>
<stop offset="1" stop-color="#CECCD7"/>
</radialGradient>
<radialGradient id="paint21_radial_131_333" cx="0" cy="0" r="1" gradientUnits="userSpaceOnUse" gradientTransform="translate(7.28944 50.024) rotate(-50.7856) scale(16.4474 22.6194)">
<stop stop-color="#D0C9EE"/>
<stop offset="1" stop-color="#D0C9EE" stop-opacity="0"/>
</radialGradient>
<clipPath id="clip0_131_333">
<rect width="55" height="48" fill="white"/>
</clipPath>
</defs>
</svg>
